<?xml version="1.0" encoding="UTF-8" standalone="no"?>
<!-- Created with Inkscape (http://www.inkscape.org/) -->

<svg
   width="210mm"
   height="297mm"
   viewBox="0 0 210 297"
   version="1.1"
   id="svg1"
   sodipodi:docname="Design.svg"
   inkscape:version="1.3.2 (091e20e, 2023-11-25, custom)"
   xmlns:inkscape="http://www.inkscape.org/namespaces/inkscape"
   xmlns:sodipodi="http://sodipodi.sourceforge.net/DTD/sodipodi-0.dtd"
   xmlns:xlink="http://www.w3.org/1999/xlink"
   xmlns="http://www.w3.org/2000/svg"
   xmlns:svg="http://www.w3.org/2000/svg">
  <sodipodi:namedview
     id="namedview1"
     pagecolor="#ffffff"
     bordercolor="#666666"
     borderopacity="1.0"
     inkscape:showpageshadow="2"
     inkscape:pageopacity="0.0"
     inkscape:pagecheckerboard="0"
     inkscape:deskcolor="#d1d1d1"
     inkscape:document-units="px"
     inkscape:zoom="1.4164562"
     inkscape:cx="350.87566"
     inkscape:cy="500.19196"
     inkscape:window-width="1920"
     inkscape:window-height="991"
     inkscape:window-x="-9"
     inkscape:window-y="-9"
     inkscape:window-maximized="1"
     inkscape:current-layer="layer1" />
  <defs
     id="defs1">
    <inkscape:path-effect
       effect="fillet_chamfer"
       id="path-effect16"
       is_visible="true"
       lpeversion="1"
       nodesatellites_param="F,0,1,1,0,0.9454842,0,1 @ F,0,1,1,0,0.9454842,0,1 @ F,0,0,1,0,0,0,1 @ F,0,0,1,0,0,0,1 @ F,0,1,1,0,0.9454842,0,1 @ F,0,0,1,0,0.9454842,0,1 @ F,0,0,1,0,0,0,1 @ F,0,0,1,0,0,0,1"
       radius="0"
       unit="px"
       method="auto"
       mode="F"
       chamfer_steps="1"
       flexible="false"
       use_knot_distance="true"
       apply_no_radius="true"
       apply_with_radius="true"
       only_selected="false"
       hide_knots="false" />
    <linearGradient
       id="linearGradient2"
       inkscape:collect="always">
      <stop
         style="stop-color:#7d7d7d;stop-opacity:0;"
         offset="0"
         id="stop2" />
      <stop
         style="stop-color:#7d7d7d;stop-opacity:1;"
         offset="0.49770114"
         id="stop4" />
      <stop
         style="stop-color:#7e7e7e;stop-opacity:0;"
         offset="1"
         id="stop3" />
    </linearGradient>
    <linearGradient
       inkscape:collect="always"
       xlink:href="#linearGradient2"
       id="linearGradient3"
       x1="25.623949"
       y1="59.43137"
       x2="36.718857"
       y2="59.43137"
       gradientUnits="userSpaceOnUse"
       gradientTransform="matrix(3.2416637,0,0,1.545085,-209.35461,-51.541455)" />
  </defs>
  <g
     inkscape:label="Calque 1"
     inkscape:groupmode="layer"
     id="layer1">
    <path
       d="m 40.914299,26.8981 h -2.484086 c -1.54073,2.853265 -2.41639,6.116869 -2.41639,9.582361 0,3.237608 0.767651,6.296822 2.124418,9.011853 h 2.434476 c -1.52738,-2.651744 -2.404504,-5.726769 -2.404504,-9.011853 0,-3.523095 1.007621,-6.805634 2.746086,-9.582361 z"
       style="stroke-linecap:round;stroke-miterlimit:3.1"
       id="path22"
       inkscape:export-filename="path22.svg"
       inkscape:export-xdpi="2330.28"
       inkscape:export-ydpi="2330.28" />
    <path
       d="m 74.038375,26.8981 h -2.484086 c 1.738464,2.776727 2.746602,6.059266 2.746602,9.582361 0,3.285084 -0.877641,6.360109 -2.405021,9.011853 h 2.434477 c 1.356767,-2.715031 2.124935,-5.774245 2.124935,-9.011853 0,-3.465492 -0.876178,-6.729096 -2.416907,-9.582361 z"
       style="stroke-linecap:round;stroke-miterlimit:3.1"
       id="path18" />
    <path
       id="path11"
       style="stroke-width:0.140661;stroke-linecap:round;stroke-miterlimit:3.1"
       d="M 56.233777 20.340877 C 52.922678 20.340877 50.257398 23.006157 50.257398 26.317257 L 50.257398 34.440275 C 50.257398 37.751375 52.922678 40.417171 56.233777 40.417171 C 59.544876 40.417171 62.210673 37.751375 62.210673 34.440275 L 62.210673 26.317257 C 62.210673 23.006157 59.544876 20.340877 56.233777 20.340877 z M 47.914905 35.266065 C 47.392729 35.266065 46.981021 35.690814 47.057593 36.207092 C 47.645421 40.170469 50.886485 43.243996 54.929464 43.577185 L 54.929464 50.009867 L 51.025309 50.009867 C 50.302712 50.009867 49.720479 50.591583 49.720479 51.314181 C 49.720479 52.036778 50.302712 52.618494 51.025309 52.618494 L 61.442761 52.618494 C 62.165359 52.618494 62.747591 52.036778 62.747591 51.314181 C 62.747591 50.591583 62.165359 50.009867 61.442761 50.009867 L 57.538607 50.009867 L 57.538607 43.577185 C 61.581588 43.243996 64.822652 40.170472 65.410478 36.207092 C 65.487049 35.690817 65.075342 35.266065 64.553166 35.266065 L 64.112366 35.266065 C 63.59019 35.266065 63.141148 35.691048 63.030261 36.200891 C 62.364736 39.260907 59.656661 41.5401 56.39139 41.5401 L 56.076681 41.5401 C 52.811445 41.5401 50.103372 39.260855 49.437809 36.200891 C 49.326903 35.690993 48.877881 35.266065 48.355705 35.266065 L 47.914905 35.266065 z " />
    <rect
       style="fill:#404040;fill-opacity:1;stroke:none;stroke-width:0.0426695;stroke-linecap:round;stroke-miterlimit:3.1;stroke-opacity:1"
       id="rect7"
       width="5.6948776"
       height="76.199532"
       x="84.972969"
       y="98.477379"
       ry="2.8474388" />
    <g
       id="g7"
       transform="matrix(0.42925105,0,0,0.42925105,70.527997,120.17414)">
      <rect
         style="fill:#ababab;fill-opacity:1;stroke:none;stroke-width:0.1;stroke-linecap:round;stroke-miterlimit:3.1;stroke-opacity:1"
         id="rect1"
         width="27.737267"
         height="55.474529"
         x="26.416443"
         y="80.570145"
         ry="10.038248" />
      <rect
         style="fill:url(#linearGradient3);stroke:none;stroke-width:0.223799;stroke-linecap:round;stroke-miterlimit:3.1;stroke-opacity:1"
         id="rect2"
         width="35.965954"
         height="27.737267"
         x="-126.29038"
         y="26.416443"
         ry="0"
         transform="rotate(-90)" />
      <rect
         style="fill:#414141;fill-opacity:1;stroke:none;stroke-width:0.0948466;stroke-linecap:round;stroke-miterlimit:3.1;stroke-opacity:1"
         id="rect4"
         width="18.359426"
         height="4.6228771"
         x="31.105362"
         y="105.99597"
         ry="2.3114386" />
      <rect
         style="fill:#b3b3b3;fill-opacity:1;stroke:none;stroke-width:0.0734075;stroke-linecap:round;stroke-miterlimit:3.1;stroke-opacity:1"
         id="rect5"
         width="23.048346"
         height="2.4283018"
         x="28.760902"
         y="87.896126"
         ry="1.2141509" />
      <rect
         style="fill:#b3b3b3;fill-opacity:1;stroke:none;stroke-width:0.0734075;stroke-linecap:round;stroke-miterlimit:3.1;stroke-opacity:1"
         id="rect5-7"
         width="23.048346"
         height="2.4283018"
         x="28.760902"
         y="92.939514"
         ry="1.2141509" />
      <rect
         style="fill:#b3b3b3;fill-opacity:1;stroke:none;stroke-width:0.0734075;stroke-linecap:round;stroke-miterlimit:3.1;stroke-opacity:1"
         id="rect5-7-6"
         width="23.048346"
         height="2.4283018"
         x="28.760902"
         y="97.982903"
         ry="1.2141509" />
      <rect
         style="fill:#b3b3b3;fill-opacity:1;stroke:none;stroke-width:0.0734075;stroke-linecap:round;stroke-miterlimit:3.1;stroke-opacity:1"
         id="rect5-9"
         width="23.048346"
         height="2.4283018"
         x="28.760902"
         y="116.20361"
         ry="1.2141509" />
      <rect
         style="fill:#b3b3b3;fill-opacity:1;stroke:none;stroke-width:0.0734075;stroke-linecap:round;stroke-miterlimit:3.1;stroke-opacity:1"
         id="rect5-7-9"
         width="23.048346"
         height="2.4283018"
         x="28.760902"
         y="121.24702"
         ry="1.2141509" />
      <rect
         style="fill:#b3b3b3;fill-opacity:1;stroke:none;stroke-width:0.0734075;stroke-linecap:round;stroke-miterlimit:3.1;stroke-opacity:1"
         id="rect5-7-6-4"
         width="23.048346"
         height="2.4283018"
         x="28.760902"
         y="126.2904"
         ry="1.2141509" />
    </g>
  </g>
</svg>
