<?xml version="1.0" encoding="UTF-8" standalone="no"?>
<!-- Created with Inkscape (http://www.inkscape.org/) -->

<svg
   width="500"
   height="500"
   viewBox="0 0 132.29166 132.29167"
   version="1.1"
   id="svg1"
   xml:space="preserve"
   inkscape:version="1.3.2 (091e20e, 2023-11-25, custom)"
   sodipodi:docname="Icone actualités.svg"
   xmlns:inkscape="http://www.inkscape.org/namespaces/inkscape"
   xmlns:sodipodi="http://sodipodi.sourceforge.net/DTD/sodipodi-0.dtd"
   xmlns="http://www.w3.org/2000/svg"
   xmlns:svg="http://www.w3.org/2000/svg"><sodipodi:namedview
     id="namedview1"
     pagecolor="#ffffff"
     bordercolor="#666666"
     borderopacity="1.0"
     inkscape:showpageshadow="2"
     inkscape:pageopacity="0.0"
     inkscape:pagecheckerboard="0"
     inkscape:deskcolor="#d1d1d1"
     inkscape:document-units="mm"
     inkscape:zoom="1.0015858"
     inkscape:cx="300.52343"
     inkscape:cy="198.18572"
     inkscape:window-width="1920"
     inkscape:window-height="991"
     inkscape:window-x="-9"
     inkscape:window-y="-9"
     inkscape:window-maximized="1"
     inkscape:current-layer="layer1" /><defs
     id="defs1" /><g
     inkscape:label="Calque 1"
     inkscape:groupmode="layer"
     id="layer1"><path
       style="fill:#000000;stroke-width:2.47864"
       d="m 20.938397,111.60571 0.03287,-6.24075 h 2.977824 2.977821 l 0.03381,3.2634 0.03381,3.26341 49.638795,-0.0322 49.638803,-0.0322 0.0337,-37.06438 c 0.0223,-23.6363 -0.01,-37.275383 -0.0895,-37.646776 -0.36255,-1.714965 -1.27833,-3.069338 -2.35292,-3.479723 -1.00675,-0.384484 -1.62091,0.118854 -2.02148,1.656731 -0.17177,0.659651 -0.19507,3.478945 -0.19607,23.878661 -0.001,24.54283 -0.0419,26.71095 -0.58,30.92372 -0.50567,3.95857 -1.24366,6.45985 -2.68657,9.10546 -1.09584,2.009237 -2.01202,2.894247 -3.63828,3.514547 -0.61894,0.23606 -1.80237,0.24241 -51.186143,0.27427 l -50.552546,0.0326 -0.957443,-0.25948 c -1.224075,-0.33176 -3.2820843,-1.33006 -4.2648643,-2.06883 -1.037591,-0.779967 -2.523686,-2.359487 -3.251882,-3.456297 -2.235383,-3.36695 -3.58702602,-8.02045 -4.28286522,-14.74525 -0.231778,-2.23993 -0.2426344,-3.708698 -0.2440225,-33.008158 L -2.0601667e-4,18.820549 2.1843037,16.63336 l 2.184509,-2.187186 2.187188,2.184509 2.187187,2.18451 2.1867373,-2.184061 2.18674,-2.184061 2.184958,2.184958 2.184958,2.18496 2.184961,-2.18496 2.184957,-2.184958 2.186738,2.184061 2.186738,2.184061 2.18585,-2.18015 2.185861,-2.180147 2.146628,2.149828 c 1.18065,1.182405 2.179148,2.149826 2.21893,2.149826 0.03966,0 1.028761,-0.957718 2.197786,-2.128264 l 2.125487,-2.128261 2.138249,2.128261 c 1.176041,1.170546 2.178727,2.128264 2.228202,2.128264 0.04957,0 1.02467,-0.926611 2.167125,-2.059134 1.142481,-1.132522 2.131459,-2.059133 2.197788,-2.059133 0.06618,0 1.064106,0.937619 2.217343,2.083599 l 2.096783,2.083597 0.514046,-0.49965 c 0.282739,-0.274807 1.265793,-1.252037 2.184577,-2.171621 l 1.670505,-1.671973 2.185839,2.177478 2.185866,2.17748 2.186734,-2.184061 2.186731,-2.184061 2.184527,2.18451 2.184503,2.184509 2.187178,-2.184509 2.187204,-2.18451 2.184501,2.18451 2.184503,2.184509 2.187178,-2.184509 2.187205,-2.18451 2.1845,2.18451 2.184503,2.184509 2.187202,-2.184509 2.187184,-2.18451 2.1845,2.18451 2.18453,2.184509 2.18762,-2.184958 2.187647,-2.184958 2.18339,2.186058 2.18336,2.186059 8e-4,30.693132 c 5.2e-4,19.924185 0.0464,31.23902 0.13112,32.24899 0.45205,5.39824 1.40749,8.95447 3.08281,11.47451 0.77609,1.16738 2.20604,2.4963 3.43292,3.19035 l 0.99718,0.56411 0.52369,-0.57841 c 1.14704,-1.26696 2.00254,-4.64398 2.49869,-9.86344 0.10708,-1.12597 0.17375,-8.838235 0.23052,-26.673688 0.0592,-18.583891 0.11823,-25.22117 0.22828,-25.596603 0.0815,-0.278773 0.14971,-0.563886 0.15144,-0.633579 0.002,-0.08293 -1.68272,-0.114589 -4.87553,-0.09161 l -4.87859,0.03512 v -3.049307 -3.049307 l 9.21856,0.03636 9.2186,0.03639 0.92941,0.339497 c 1.39159,0.50833 2.25358,1.070565 3.37797,2.203302 1.52657,1.537896 2.52777,3.43681 2.98805,5.667152 0.23349,1.131366 0.24093,2.32569 0.24241,39.08912 l 0.002,37.9221 -1.86907,2.52351 -1.86904,2.5235 -53.823772,0.008 -53.823744,0.008 z M 103.2348,96.970033 c -0.0293,-0.0523 -0.34309,-0.58043 -0.69724,-1.17369 -1.87187,-3.13581 -2.970027,-7.15348 -3.515037,-12.86009 -0.25996,-2.72194 -0.32604,-10.627689 -0.31741,-37.983078 l 0.007,-20.116145 H 52.334423 5.9564317 l 5.03e-4,27.148872 c 4.23e-4,22.915459 0.02964,27.46544 0.187311,29.179011 0.555982,6.04233 1.60997,10.06811 3.302464,12.61398 0.9420153,1.417 2.6220683,2.7564 3.9675473,3.16308 0.424877,0.12842 89.893573,0.15638 89.821523,0.0281 z m -30.751468,-5.60718 -6.650495,-0.0633 -0.476099,-0.69694 c -0.82177,-1.20291 -1.45469,-3.50145 -1.739559,-6.31754 -0.07882,-0.77931 -0.132855,-4.934987 -0.132855,-10.232305 v -8.920043 l 13.463563,6.9e-5 13.463563,6.6e-5 0.0024,10.168879 c 0.0024,10.105664 0.0049,10.177054 0.290695,11.483354 0.351748,1.60336 0.683438,2.59932 1.239028,3.72028 l 0.42283,0.85312 -6.616295,0.0339 c -3.638968,0.0186 -9.609026,0.005 -13.266808,-0.0295 z m -54.609937,-3.41529 c -0.284598,-0.9027 -0.552147,-1.81477 -0.594557,-2.02681 l -0.07711,-0.38553 19.234288,0.031 19.234287,0.031 0.16037,0.50686 c 0.08824,0.27878 0.336573,1.07709 0.552092,1.77402 0.215641,0.69694 0.422881,1.36695 0.46078,1.48892 0.06544,0.21053 -0.906539,0.22176 -19.191856,0.22176 H 18.390972 Z m -1.444573,-7.70677 c -0.03056,-0.0508 -0.120016,-0.719534 -0.198762,-1.486162 -0.07875,-0.766633 -0.176851,-1.63622 -0.217997,-1.932421 l -0.07483,-0.538541 h 19.275198 c 10.601354,0 19.275758,0.01437 19.276451,0.03168 7.94e-4,0.01736 0.08502,0.772969 0.187635,1.678987 0.102367,0.906018 0.187386,1.804631 0.188873,1.996917 l 0.0024,0.34961 -19.191657,-0.004 c -10.555433,-0.002 -19.216702,-0.0454 -19.247278,-0.0962 z m -0.08269,-11.623434 v -1.964095 h 19.260822 19.260787 v 1.964095 1.964097 H 35.606957 16.346135 Z m 65.385385,-9.873226 c -1.780855,-0.321154 -3.098673,-0.921692 -4.150908,-1.891601 -1.257192,-1.158854 -1.651394,-2.45727 -1.766033,-5.816997 l -0.07684,-2.249207 h 3.250269 3.250269 l 0.0049,1.995773 c 0.0074,2.997483 0.136822,3.411231 1.099527,3.540361 0.435644,0.05842 0.566319,0.01437 0.936132,-0.316257 l 0.429798,-0.384172 v -1.752595 c 0,-2.595488 0.0019,-2.593038 -3.948949,-5.272635 -3.427791,-2.32488 -4.189748,-3.10838 -4.7699,-4.904658 -0.561957,-1.740045 -0.544359,-4.873953 0.03792,-6.751939 0.793414,-2.558758 3.885025,-4.07803 7.826687,-3.846135 1.64951,0.09704 2.743879,0.36171 4.022116,0.972734 1.159483,0.554265 2.01826,1.324602 2.377638,2.132761 0.37378,0.840539 0.590833,2.311736 0.595765,4.037666 l 0.0049,1.552271 H 87.62355 84.392294 l -0.0074,-1.552271 c -0.0099,-1.955419 -0.143512,-2.398244 -0.776187,-2.554552 -0.929515,-0.229671 -1.497544,0.536236 -1.497544,2.019186 0,1.864014 0.318479,2.311498 2.724399,3.828069 3.221765,2.030849 4.696309,3.224572 5.465926,4.425 1.383415,2.157801 1.565885,7.693241 0.328618,9.968817 -0.604491,1.111811 -2.216301,2.155946 -4.065691,2.633786 -1.261356,0.325904 -3.567287,0.414923 -4.833403,0.186593 z m -43.939314,-0.424614 -3.200151,-0.03386 0.03222,-13.334667 0.03222,-13.334666 5.797248,-0.03297 5.797245,-0.03297 v 2.725669 2.725669 h -2.344224 -2.34425 v 2.534317 2.534319 h 2.217541 2.217518 v 2.534314 2.534317 h -2.217518 -2.217541 v 2.914464 2.914465 h 2.597692 2.597666 v 2.661034 2.661033 l -2.56599,0.0087 c -1.411314,0.0047 -2.708561,0.01908 -2.882784,0.03168 -0.174249,0.01265 -1.756862,0.0077 -3.516947,-0.0109 z M 16.346135,44.921731 V 31.553445 l 2.923375,0.03143 2.923373,0.03145 1.777915,5.512139 c 0.977853,3.031677 1.853037,5.683207 1.944853,5.892289 0.141306,0.321807 0.168521,-0.529315 0.17727,-5.546199 l 0.0104,-5.926347 2.8828,0.03406 2.882786,0.03406 0.03173,13.336844 0.03173,13.336843 h -3.084903 -3.085039 l -0.254982,-0.855338 c -0.140242,-0.470429 -0.933127,-3.133103 -1.761972,-5.917044 l -1.50699,-5.061712 -0.03294,5.917044 -0.03294,5.917046 h -2.913199 -2.913213 z m 33.959841,13.002982 c 0,-0.200919 -0.171273,-1.811797 -0.380619,-3.579725 C 49.037259,46.844874 47.86947,36.821619 47.587327,34.277362 47.479009,33.30165 47.357309,32.289507 47.31656,32.028157 l -0.07411,-0.475186 h 3.373085 c 2.58572,0 3.385455,0.03698 3.426079,0.158386 0.02925,0.08712 0.115258,0.985215 0.191601,1.995775 0.134342,1.779405 0.195564,2.562809 0.764413,9.757121 0.145992,1.846884 0.307475,3.89968 0.358756,4.561771 l 0.0932,1.203799 0.09865,-1.077085 c 0.452252,-4.938469 0.632994,-6.756487 0.907034,-9.123542 0.341852,-2.95302 0.775888,-6.405827 0.888023,-7.064409 l 0.07014,-0.411826 h 3.594849 3.594824 l 0.08279,0.982048 c 0.04536,0.540126 0.106084,1.212096 0.13459,1.493266 0.112282,1.103992 0.890601,10.913816 1.092981,13.774689 0.08254,1.166657 0.164581,2.106639 0.182427,2.088854 0.01736,-0.01786 0.123685,-1.228915 0.235226,-2.691405 0.345868,-4.532879 1.351256,-13.778796 1.663588,-15.298983 l 0.07163,-0.348469 h 3.347902 3.347903 l -5.29e-4,0.348469 c -2.65e-4,0.191648 -0.172265,1.802532 -0.382382,3.579722 -0.209939,1.777191 -0.607835,5.19852 -0.884031,7.602953 -0.276196,2.404433 -0.590089,5.112985 -0.697515,6.019003 -0.107326,0.906018 -0.364805,3.158392 -0.571921,5.005277 -0.207214,1.846881 -0.408035,3.543292 -0.446453,3.769796 l -0.0699,0.411827 h -4.345482 -4.345506 l -0.33908,-1.932416 c -0.486558,-2.772757 -1.033047,-6.389016 -1.3692,-9.060185 -0.160121,-1.271911 -0.323588,-2.312565 -0.363395,-2.312565 -0.03991,0 -0.231505,1.183212 -0.425905,2.629355 -0.194326,1.446144 -0.605086,4.411425 -0.912537,6.589512 -0.307451,2.178089 -0.558983,3.988543 -0.558983,4.023233 0,0.03467 -1.967274,0.06305 -4.371707,0.06305 H 50.30591 Z"
       id="path1" /></g></svg>
