<?xml version="1.0" encoding="UTF-8" standalone="no"?>
<!-- Created with Inkscape (http://www.inkscape.org/) -->

<svg
   width="500"
   height="500"
   viewBox="0 0 132.29166 132.29167"
   version="1.1"
   id="svg1"
   xml:space="preserve"
   inkscape:version="1.3.2 (091e20e, 2023-11-25, custom)"
   sodipodi:docname="Icone chronique touristique.svg"
   xmlns:inkscape="http://www.inkscape.org/namespaces/inkscape"
   xmlns:sodipodi="http://sodipodi.sourceforge.net/DTD/sodipodi-0.dtd"
   xmlns="http://www.w3.org/2000/svg"
   xmlns:svg="http://www.w3.org/2000/svg"><sodipodi:namedview
     id="namedview1"
     pagecolor="#ffffff"
     bordercolor="#666666"
     borderopacity="1.0"
     inkscape:showpageshadow="2"
     inkscape:pageopacity="0.0"
     inkscape:pagecheckerboard="0"
     inkscape:deskcolor="#d1d1d1"
     inkscape:document-units="mm"
     inkscape:zoom="1.0015858"
     inkscape:cx="496.21311"
     inkscape:cy="273.06697"
     inkscape:window-width="1920"
     inkscape:window-height="991"
     inkscape:window-x="-9"
     inkscape:window-y="-9"
     inkscape:window-maximized="1"
     inkscape:current-layer="layer1" /><defs
     id="defs1" /><g
     inkscape:label="Calque 1"
     inkscape:groupmode="layer"
     id="layer1"><path
       style="fill:#000000;stroke-width:1.7535"
       d="m 10.005251,119.39293 c -3.8585432,-1.22992 -7.0323452,-3.93787 -8.9488339,-7.6353 L 2.8833333e-6,109.71952 V 73.767017 37.814506 L 1.2132848,35.349936 c 1.502873,-3.052852 4.430869,-5.835429 7.403597,-7.035861 2.0656942,-0.834163 2.5195702,-0.863233 15.1463552,-0.970047 l 13.016869,-0.11012 0.161672,-3.079798 c 0.260834,-4.969545 2.400227,-8.389968 6.675561,-10.672745 l 1.5916,-0.849822 20.242467,-0.104632 c 20.008357,-0.103421 20.267402,-0.0953 22.397274,0.70158 4.406915,1.648838 7.152895,5.678242 7.484925,10.983202 l 0.19132,3.05716 h 5.135685 5.13567 v -2.334558 c 0,-1.321681 0.19292,-2.527488 0.44467,-2.779236 0.61611,-0.616112 9.61149,-0.616112 10.2276,0 0.25175,0.251748 0.44467,1.457555 0.44467,2.779236 v 2.334558 h 1.60029 c 5.15693,0 10.47886,3.524707 12.80165,8.478519 l 0.9765,2.082579 v 35.767301 35.767288 l -1.20111,2.43979 c -1.44653,2.93832 -4.09698,5.54052 -7.05579,6.92731 l -2.11891,0.99313 -55.214145,0.0703 c -43.882395,0.0559 -55.518382,-0.0267 -56.696419,-0.40215 z M 120.51,113.42316 c 2.54247,-0.75502 4.74772,-2.97564 5.48968,-5.52791 0.46182,-1.58858 0.54038,-4.41306 0.45995,-16.535903 l -0.097,-14.620086 -12.47225,-0.09753 -12.47227,-0.09753 -0.45231,2.691486 c -1.225065,7.28949 -4.354625,13.53692 -9.396975,18.75885 C 84.963843,104.83478 77.27248,108.31248 67.897633,108.69763 59.103194,109.05894 52.302048,107.10224 45.483104,102.24895 37.924919,96.869527 32.380226,87.689617 31.135346,78.494557 l -0.264043,-1.950353 -12.471126,0.09753 -12.4711092,0.09753 V 92.302987 107.8667 l 1.039528,1.76848 c 1.118348,1.90255 3.2166922,3.52162 5.1620962,3.98305 0.665314,0.15782 24.900187,0.30399 53.855256,0.32486 45.877032,0.0331 52.887112,-0.0338 54.524072,-0.51991 z M 73.371847,101.55768 c 1.222857,-0.32242 3.807552,-1.36151 5.74375,-2.309073 3.01888,-1.47743 4.02197,-2.22682 7.041604,-5.26065 1.936689,-1.94579 4.091707,-4.51073 4.788916,-5.69987 3.040678,-5.18603 4.528698,-12.17208 3.798118,-17.831672 -0.88071,-6.82265 -3.54994,-12.273621 -8.370845,-17.09452 -4.8209,-4.8209 -10.271868,-7.490131 -17.094512,-8.370846 -11.427846,-1.475187 -23.660935,5.190652 -28.826468,15.707605 -2.420112,4.927327 -2.98395,7.356524 -2.992016,12.890807 -0.0053,3.689529 0.160971,5.220136 0.817587,7.522166 3.142572,11.0176 11.934187,18.932183 23.358386,21.028213 2.431159,0.44605 9.088325,0.11582 11.73548,-0.58216 z M 62.810739,92.067477 c -1.120961,-0.18379 -3.254568,-0.91003 -4.741344,-1.61387 -9.309967,-4.40731 -13.287083,-15.651768 -8.791948,-24.857401 3.298896,-6.75587 9.34993,-10.534986 16.868381,-10.534986 6.63274,0 12.154496,2.935201 15.634792,8.310979 3.925072,6.062787 3.925212,14.3651 3.69e-4,20.437608 -2.772917,4.29023 -7.678721,7.50043 -12.67064,8.29127 -2.746316,0.43508 -3.464304,0.43125 -6.29961,-0.0336 z m -2.634986,-7.56869 c 2.139903,-1.80062 1.757815,-5.00623 -0.751393,-6.30379 -2.526531,-1.306527 -5.507167,0.64396 -5.507167,3.60383 0,3.22631 3.723839,4.83279 6.25856,2.69996 z m 14.97467,-11.509859 c 1.684203,-0.852844 2.460793,-1.610296 3.263476,-3.182994 1.498226,-2.935515 0.49375,-6.85016 -2.218197,-8.644849 -2.875233,-1.902741 -5.906054,-1.672699 -8.413507,0.638599 -2.624553,2.41923 -3.053196,5.890518 -1.094588,8.864191 1.678539,2.548428 5.790656,3.678182 8.462816,2.325053 z M 31.419706,67.280365 c 2.102518,-11.121983 9.246982,-20.496812 19.347673,-25.387647 4.483895,-2.171136 8.336617,-3.137157 13.525629,-3.391382 7.22872,-0.354154 13.845381,1.245447 19.793589,4.785164 9.452988,5.625375 15.276638,14.474991 17.079303,25.953732 l 0.21901,1.394526 12.48884,-0.09755 12.48885,-0.09755 0.11363,-14.266745 c 0.0779,-9.771596 -0.0209,-14.891593 -0.31293,-16.249893 -0.49054,-2.280789 -2.25709,-4.503508 -4.48095,-5.638035 -1.35773,-0.692661 -2.87113,-0.712251 -55.54408,-0.718995 -59.8916482,-0.0077 -55.326899,-0.190753 -57.8374392,2.319792 -2.434491,2.434482 -2.361037,1.869157 -2.479538,19.082795 l -0.10784,15.656362 H 18.250423 30.787411 Z M 15.179236,47.996872 c -0.619073,-0.180037 -1.605575,-0.828324 -2.192209,-1.440638 -1.413445,-1.475322 -1.720237,-4.440815 -0.637485,-6.161981 0.834105,-1.325899 2.822978,-2.379013 4.492925,-2.379013 5.26394,0 6.748909,7.825006 1.856449,9.782578 -1.642241,0.657096 -1.895394,0.671414 -3.51968,0.199054 z M 89.120845,24.914989 c 0,-2.586902 -0.746079,-4.12097 -2.713367,-5.5792 -1.023185,-0.758428 -1.442219,-0.777494 -19.365787,-0.88111 -11.591868,-0.06702 -18.833687,0.03242 -19.718819,0.270764 -0.769366,0.20717 -1.973706,0.969777 -2.676316,1.694684 -1.184893,1.222501 -1.287578,1.518403 -1.417109,4.083373 l -0.139579,2.76536 h 23.015524 23.015524 z"
       id="path1" /></g></svg>
