<?xml version="1.0" encoding="UTF-8" standalone="no"?>
<!-- Created with Inkscape (http://www.inkscape.org/) -->

<svg
   width="500"
   height="500"
   viewBox="0 0 132.29166 132.29167"
   version="1.1"
   id="svg1"
   xml:space="preserve"
   inkscape:version="1.3.2 (091e20e, 2023-11-25, custom)"
   sodipodi:docname="Icone portraits dark.svg"
   xmlns:inkscape="http://www.inkscape.org/namespaces/inkscape"
   xmlns:sodipodi="http://sodipodi.sourceforge.net/DTD/sodipodi-0.dtd"
   xmlns="http://www.w3.org/2000/svg"
   xmlns:svg="http://www.w3.org/2000/svg"><sodipodi:namedview
     id="namedview1"
     pagecolor="#ffffff"
     bordercolor="#666666"
     borderopacity="1.0"
     inkscape:showpageshadow="2"
     inkscape:pageopacity="0.0"
     inkscape:pagecheckerboard="0"
     inkscape:deskcolor="#d1d1d1"
     inkscape:document-units="mm"
     inkscape:zoom="1.0015858"
     inkscape:cx="374.40627"
     inkscape:cy="318.99414"
     inkscape:window-width="1920"
     inkscape:window-height="991"
     inkscape:window-x="-9"
     inkscape:window-y="-9"
     inkscape:window-maximized="1"
     inkscape:current-layer="layer1" /><defs
     id="defs1" /><g
     inkscape:label="Calque 1"
     inkscape:groupmode="layer"
     id="layer1"><path
       style="fill:#fbfbfb;fill-opacity:1"
       d="m 9.9474359,132.03986 c -0.284221,-0.11633 -0.749309,-0.4698 -1.033529,-0.7855 -0.488556,-0.54265 -0.520882,-0.99521 -0.592195,-8.2906 -0.08476,-8.67085 -0.02897,-8.99601 1.665042,-9.70381 1.0658081,-0.44532 2.3019381,-0.15961 3.0946201,0.71526 0.435095,0.48021 0.496325,1.14425 0.612604,6.64362 l 0.129191,6.11007 6.097556,0.12919 c 6.652751,0.14096 6.718017,0.1561 7.36718,1.70907 0.488049,1.16755 0.04679,2.56607 -1.013653,3.21267 -0.767705,0.4681 -1.334838,0.50131 -8.316969,0.48695 -4.121195,-0.008 -7.725627,-0.11059 -8.0098471,-0.22692 z m 96.0694241,-0.25399 c -1.06038,-0.65433 -1.50089,-2.05311 -1.01365,-3.21871 0.64916,-1.55297 0.71443,-1.56811 7.36718,-1.70907 l 6.09755,-0.12919 0.12919,-6.11007 c 0.11628,-5.49937 0.17751,-6.16341 0.61261,-6.64362 0.79268,-0.87487 2.02881,-1.16058 3.09462,-0.71526 1.69454,0.70802 1.74979,1.03076 1.66504,9.72502 l -0.0754,7.73784 -0.71607,0.71606 -0.71607,0.71606 -7.81054,0.0697 c -7.3837,0.0659 -7.85557,0.0419 -8.63443,-0.43873 z M 22.016902,116.39999 c -1.012983,-0.85237 -1.381497,-2.77507 -1.37959,-7.19794 0.0017,-4.02522 0.526431,-7.83842 1.712495,-12.445485 1.382417,-5.36976 1.891821,-6.58311 3.100559,-7.38527 2.229032,-1.47925 12.388285,-5.57672 21.704103,-8.75379 2.557983,-0.87237 4.73116,-1.66749 4.82928,-1.76691 0.09812,-0.0994 0.258997,-1.07635 0.357502,-2.17094 l 0.1791,-1.99015 -2.096248,-1.972 c -2.909063,-2.73664 -5.062,-6.12693 -6.229009,-9.809 -0.212612,-0.67082 -0.985308,-1.71361 -2.201777,-2.9714 -3.146752,-3.25363 -4.553634,-5.83757 -5.038039,-9.25307 -0.541237,-3.81622 0.720578,-7.20253 3.158277,-8.47581 l 0.710551,-0.37114 v -3.96444 c 0,-6.09718 0.844705,-10.10759 3.042704,-14.44589 0.992183,-1.95831 1.637009,-2.8104 3.666876,-4.84548 2.110597,-2.11602 2.81418,-2.64105 4.917617,-3.66964 1.350047,-0.66017 3.442942,-1.46686 4.650882,-1.79265 2.03004,-0.5475 2.71441,-0.59226 9.04337,-0.59145 7.39207,9.6e-4 8.40189,0.13192 12.23685,1.587 4.99827,1.89648 9.39021,6.4488 11.40868,11.82528 1.37749,3.66913 1.71333,5.64373 1.86197,10.94746 l 0.13969,4.98464 0.67687,0.35372 c 3.52233,1.84073 4.40579,7.977 1.87134,12.99772 -0.96912,1.9198 -2.86394,4.43359 -4.28438,5.68391 -0.76645,0.67466 -1.33939,1.51343 -1.81447,2.65634 -1.37196,3.3006 -3.77738,7.33032 -5.86533,9.826 -0.96425,1.15255 -0.98667,1.2267 -0.98667,3.2631 v 2.08375 l 3.68195,1.35233 c 10.52704,3.86643 21.402925,8.49044 22.587595,9.60338 1.04124,0.97819 2.76074,7.21547 3.58263,12.995485 0.44561,3.13382 0.48867,8.89708 0.0838,11.22176 -0.2199,1.26274 -0.47717,1.87471 -1.01366,2.4112 l -0.71896,0.71896 H 66.185255 22.777002 Z m 84.177888,-7.53089 c 0,-3.92807 -0.83841,-9.212165 -2.2106,-13.932325 l -0.39043,-1.34303 -2.25224,-1.04407 c -2.233445,-1.03537 -8.043105,-3.4554 -11.589695,-4.82774 l -1.84438,-0.71367 -2.53293,2.22732 c -5.28227,4.64495 -10.3556,7.32175 -15.99918,8.44153 -2.11036,0.41872 -6.55944,0.42008 -8.91418,0.003 -5.49186,-0.97342 -11.395401,-3.96343 -15.800931,-8.00283 -0.945505,-0.86693 -1.839169,-1.57623 -1.985921,-1.57623 -0.412904,0 -7.855581,2.8921 -10.955073,4.25695 l -2.774512,1.22176 -0.503729,1.71773 c -1.565349,5.337925 -2.101988,8.323025 -2.271314,12.634395 l -0.144605,3.68195 H 66.109935 106.19479 Z M 70.667245,91.722355 c 3.46066,-1.09527 8.55581,-4.07834 10.58689,-6.19834 l 0.69431,-0.7247 -2.32842,-0.8329 c -3.55842,-1.27287 -3.5106,-1.18381 -3.60746,-6.71951 -0.0674,-3.85121 -0.0118,-4.74559 0.33649,-5.4192 0.22946,-0.44371 0.58651,-0.87173 0.79346,-0.95114 1.12596,-0.43207 5.03689,-6.78386 6.56674,-10.66513 0.41775,-1.05984 1.07448,-1.91224 2.68648,-3.48695 3.09029,-3.01881 4.53648,-6.33895 3.83404,-8.80215 -0.2096,-0.73502 -0.29141,-0.77515 -1.58016,-0.77515 -1.21817,0 -1.4401,-0.0907 -2.14019,-0.87418 -0.77688,-0.86948 -0.77989,-0.88476 -0.56016,-2.8422 0.1215,-1.08241 0.20569,-3.88651 0.18709,-6.23133 -0.0292,-3.67622 -0.12487,-4.60982 -0.69493,-6.77961 -0.90259,-3.43546 -2.22663,-5.88488 -4.30012,-7.95507 -1.93502,-1.93195 -3.92423,-3.06739 -6.86578,-3.91899 -1.88329,-0.54523 -2.56245,-0.5958 -8.00078,-0.5958 -6.74888,0 -7.82255,0.18215 -11.39681,1.93356 -3.892863,1.90753 -6.564031,5.54229 -7.883343,10.72716 -0.495172,1.94602 -0.593639,3.02105 -0.603494,6.58875 -0.0065,2.34482 0.08764,5.14892 0.20914,6.23133 0.219728,1.95744 0.216716,1.97272 -0.560165,2.8422 -0.702614,0.78636 -0.919483,0.87418 -2.158782,0.87418 H 42.50359 l -0.07761,1.79725 c -0.114397,2.64902 0.955994,4.6956 4.006817,7.66099 2.005082,1.94893 2.326203,2.38687 2.635725,3.59457 0.950478,3.70856 4.050217,8.17944 6.969943,10.05303 0.68176,0.43748 1.37441,1.09137 1.53922,1.45308 0.36205,0.79461 0.3989,8.03083 0.0486,9.54753 -0.13128,0.56844 -0.52775,1.28293 -0.88103,1.58775 -0.35329,0.30482 -2.3019,1.10731 -4.330238,1.7833 l -3.687896,1.22909 1.022336,0.88813 c 2.577031,2.23873 7.273028,4.57273 10.840858,5.38809 2.36516,0.54052 7.77218,0.32179 10.0769,-0.40764 z M 9.8995609,18.992925 c -1.597299,-0.69472 -1.661783,-1.09119 -1.577849,-9.7013398 l 0.07543,-7.737832 0.716068,-0.71606004 0.716068,-0.71606 7.8105441,-0.06967 c 7.383702,-0.06586 7.855568,-0.04188 8.634429,0.438729 1.060377,0.65432904 1.500888,2.05310704 1.013653,3.21870504 -0.649163,1.552975 -0.714429,1.568116 -7.36718,1.70907 l -6.097556,0.129191 -0.129191,6.0975558 c -0.141292,6.66868 -0.15255,6.71654 -1.735781,7.37834 -1.003397,0.41943 -1.024569,0.41911 -2.0586361,-0.0306 z m 110.3769591,0.0138 c -1.52108,-0.65063 -1.53885,-0.7285 -1.67939,-7.36153 l -0.12919,-6.0975558 -6.11007,-0.129191 c -5.49937,-0.116278 -6.16341,-0.177508 -6.64362,-0.612603 -0.87487,-0.792683 -1.16058,-2.028813 -0.71526,-3.09462 0.70802,-1.69454104 1.03076,-1.74979704 9.72502,-1.66504204 l 7.73784,0.07543 0.71606,0.71606 0.71606,0.71606004 0.0754,7.737832 c 0.0643,6.5911898 0.016,7.8527698 -0.32565,8.5134498 -0.63764,1.23305 -2.08573,1.74985 -3.36723,1.20171 z"
       id="path1" /></g></svg>
