<?xml version="1.0" encoding="UTF-8" standalone="no"?>
<!-- Created with Inkscape (http://www.inkscape.org/) -->

<svg
   width="500"
   height="500"
   viewBox="0 0 132.29166 132.29167"
   version="1.1"
   id="svg1"
   xml:space="preserve"
   inkscape:version="1.3.2 (091e20e, 2023-11-25, custom)"
   sodipodi:docname="Icone chronique culturelle dark.svg"
   xmlns:inkscape="http://www.inkscape.org/namespaces/inkscape"
   xmlns:sodipodi="http://sodipodi.sourceforge.net/DTD/sodipodi-0.dtd"
   xmlns="http://www.w3.org/2000/svg"
   xmlns:svg="http://www.w3.org/2000/svg"><sodipodi:namedview
     id="namedview1"
     pagecolor="#ffffff"
     bordercolor="#666666"
     borderopacity="1.0"
     inkscape:showpageshadow="2"
     inkscape:pageopacity="0.0"
     inkscape:pagecheckerboard="0"
     inkscape:deskcolor="#d1d1d1"
     inkscape:document-units="mm"
     inkscape:zoom="1.0015858"
     inkscape:cx="374.40627"
     inkscape:cy="318.99414"
     inkscape:window-width="1920"
     inkscape:window-height="991"
     inkscape:window-x="-9"
     inkscape:window-y="-9"
     inkscape:window-maximized="1"
     inkscape:current-layer="layer1" /><defs
     id="defs1" /><g
     inkscape:label="Calque 1"
     inkscape:groupmode="layer"
     id="layer1"><path
       style="fill:#fbfbfb;fill-opacity:1"
       d="m 39.009759,121.62712 c -10.283615,-0.96145 -19.32977,-7.16088 -23.931416,-16.40047 -1.042064,-2.09234 -0.931485,-1.7518 -8.4627497,-26.062593 -4.130383,-13.3328 -6.57603997,-21.61952 -6.48177797,-21.96248 0.431429,-1.569709 0.98749697,-1.731002 4.28178697,-1.24198 13.8257467,2.05239 46.4841097,-5.399196 57.1049367,-13.0295 1.084919,-0.779437 1.392551,-0.886582 1.98169,-0.690202 1.529233,0.509744 1.42097,-0.05315 4.635249,24.100232 3.295334,24.76247 3.469505,26.8701 2.590282,31.34486 -2.362951,12.026103 -11.846709,21.447403 -23.6791,23.523163 -2.872743,0.50396 -5.606103,0.64642 -8.038901,0.41897 z m 7.082005,-14.05818 c 5.250506,-1.6393 9.053267,-6.16688 9.734158,-11.589523 0.264767,-2.10862 0.161753,-2.50916 -0.645322,-2.50916 -0.703639,0 -25.055883,5.31563 -25.440098,5.55309 -0.389392,0.24065 -0.319676,0.81413 0.229238,1.885693 1.644126,3.20959 5.200358,5.93758 8.996957,6.90157 1.780759,0.45215 5.283348,0.33335 7.125067,-0.24167 z M 28.374017,82.769437 c 2.576782,-0.686 3.946859,-1.93931 3.946859,-3.61047 0,-2.6325 -4.471203,-4.56861 -8.826046,-3.82184 -3.241225,0.55581 -5.381612,2.15832 -5.384008,4.031 -0.0014,1.1092 1.837135,2.78348 3.638708,3.31358 1.7562,0.51675 4.858671,0.55784 6.624487,0.0877 z m 22.864773,-5.05668 c 3.158473,-0.97555 5.977864,-3.35857 6.497993,-5.49226 0.100811,-0.41354 0.02278,-1.06713 -0.187481,-1.57036 -1.370894,-3.28101 -9.488457,-1.62251 -12.244722,2.50173 -2.457866,3.67773 0.767551,6.15671 5.93421,4.56089 z m 36.737749,15.21125 c -2.64035,-0.16056 -4.39538,-0.47183 -6.62765,-1.17547 l -1.227311,-0.38687 7.42e-4,-1.20655 c 4.08e-4,-0.6636 -0.423672,-4.43534 -0.9424,-8.38165 -0.518729,-3.94631 -0.896946,-7.21662 -0.840485,-7.26735 0.05646,-0.0507 5.320944,0.82108 11.698854,1.93736 6.37791,1.11627 11.675821,1.98038 11.773131,1.92024 0.29013,-0.17931 -0.16389,-3.53606 -0.68842,-5.08978 -1.506901,-4.46358 -5.513681,-8.19516 -10.057471,-9.36668 -0.87318,-0.22513 -2.55912,-0.40795 -3.74655,-0.40626 -3.33974,0.005 -5.93575,0.85727 -8.596983,2.82324 -0.793442,0.58615 -1.447105,0.97485 -1.452585,0.86379 -0.0055,-0.11107 -0.625052,-4.79468 -1.376829,-10.40804 -0.751777,-5.61335 -1.352297,-10.230897 -1.334488,-10.261213 0.01781,-0.03032 0.597726,0.115024 1.288704,0.322978 3.271199,0.984486 7.806381,0.160761 9.839291,-1.787112 1.32243,-1.26711 1.50551,-2.292662 0.65755,-3.683287 -1.50704,-2.471495 -7.756556,-3.301911 -11.47102,-1.524234 -0.725921,0.347413 -1.335596,0.607798 -1.354834,0.578632 -0.01924,-0.02917 -0.36418,-0.667557 -0.766539,-1.418647 -1.028221,-1.919393 -3.008894,-3.801616 -5.01278,-4.763618 -1.400104,-0.672145 -2.096144,-0.835187 -3.959561,-0.927492 -1.906621,-0.09445 -2.260844,-0.18044 -2.260844,-0.548866 0,-1.770352 1.85836,-20.814063 2.069643,-21.208849 0.707955,-1.322825 2.094821,-1.331813 4.114142,-0.02666 9.890019,6.392228 39.832564,12.432047 55.510614,11.197248 2.12369,-0.167261 4.65414,-0.487995 5.62324,-0.712743 1.68233,-0.390159 1.79203,-0.386263 2.42674,0.08619 0.36562,0.272154 0.76401,0.773628 0.88531,1.114387 0.16725,0.469857 -1.28497,6.348102 -6.01009,24.327403 -3.42684,13.039313 -6.50549,24.438083 -6.84143,25.330603 -4.21705,11.20367 -14.67217,19.10409 -26.513921,20.03528 -1.20794,0.095 -3.37053,0.10129 -4.80577,0.014 z M 112.37511,52.024423 c 1.13699,-0.590108 1.70496,-1.9088 1.36009,-3.157814 -0.82796,-2.998608 -5.5879,-5.798948 -9.80508,-5.768463 -2.19353,0.01586 -3.36587,0.565044 -4.006671,1.87694 -0.45737,0.936366 -0.45964,1.041288 -0.046,2.124472 0.811341,2.124461 3.996941,4.520881 7.008541,5.272291 1.47632,0.368351 4.47575,0.178505 5.48909,-0.347426 z"
       id="path1" /></g></svg>
