<?xml version="1.0" encoding="UTF-8" standalone="no"?>
<!-- Created with Inkscape (http://www.inkscape.org/) -->

<svg
   width="500"
   height="500"
   viewBox="0 0 132.29166 132.29167"
   version="1.1"
   id="svg1"
   xml:space="preserve"
   inkscape:version="1.3.2 (091e20e, 2023-11-25, custom)"
   sodipodi:docname="Icone chronique scientifique - Copie.svg"
   xmlns:inkscape="http://www.inkscape.org/namespaces/inkscape"
   xmlns:sodipodi="http://sodipodi.sourceforge.net/DTD/sodipodi-0.dtd"
   xmlns="http://www.w3.org/2000/svg"
   xmlns:svg="http://www.w3.org/2000/svg"><sodipodi:namedview
     id="namedview1"
     pagecolor="#ffffff"
     bordercolor="#666666"
     borderopacity="1.0"
     inkscape:showpageshadow="2"
     inkscape:pageopacity="0.0"
     inkscape:pagecheckerboard="0"
     inkscape:deskcolor="#d1d1d1"
     inkscape:document-units="mm"
     inkscape:zoom="1.0015858"
     inkscape:cx="374.40627"
     inkscape:cy="318.99414"
     inkscape:window-width="1920"
     inkscape:window-height="991"
     inkscape:window-x="-9"
     inkscape:window-y="-9"
     inkscape:window-maximized="1"
     inkscape:current-layer="layer1" /><defs
     id="defs1" /><g
     inkscape:label="Calque 1"
     inkscape:groupmode="layer"
     id="layer1"><path
       style="fill:#fbfbfb;fill-opacity:1"
       d="m 64.975887,131.8776 c -6.72703,-1.84885 -12.7701,-9.92495 -16.9618,-22.66817 -0.45568,-1.38531 -0.94464,-2.51874 -1.08658,-2.51874 -0.14195,0 -1.61483,0.41166 -3.27307,0.91481 -13.07718,3.96785 -23.309046,3.19937 -28.802663,-2.16329 -4.478493,-4.37173 -4.627529,-11.322983 -0.430175,-20.063883 2.620512,-5.45716 6.094306,-10.38253 12.873108,-18.25231 0.99421,-1.15421 1.15398,-0.76881 -1.64302,-3.96332 -0.995655,-1.13716 -2.601118,-3.08526 -3.567698,-4.32913 -1.629101,-2.09645 -1.808208,-2.24734 -2.453029,-2.06665 -0.382585,0.1072 -1.742058,0.19006 -3.021049,0.18413 -1.887541,-0.009 -2.554916,-0.1228 -3.544061,-0.60561 -1.934644,-0.94432 -3.4489001,-2.44977 -4.3916971,-4.36617 -0.779592,-1.58465 -0.849237,-1.9278 -0.849237,-4.18429 0,-2.20583 0.07766,-2.61131 0.7568,-3.95138 0.41624,-0.82132 1.325606,-2.02525 2.0208141,-2.67541 l 1.264013,-1.18211 -0.287618,-2.23289 c -0.712316,-5.52998 1.077796,-9.77669 5.374157,-12.749192 5.426987,-3.754742 15.148225,-3.657906 27.629365,0.275224 1.31599,0.414702 2.43401,0.67986 2.48449,0.589241 0.0505,-0.09062 0.47101,-1.327255 0.93449,-2.748079 2.59633,-7.959019 6.1733,-14.5395216 9.97718,-18.3548726 8.45149,-8.476966 17.94964,-5.39999297 25.22372,8.1713536 1.43091,2.66966 3.18789,6.905389 4.35807,10.506433 0.61409,1.889742 0.97828,2.6479 1.27195,2.6479 0.22631,0 1.21379,-0.270586 2.19439,-0.601302 l 1.7829,-0.601302 0.31193,-1.689766 c 0.56668,-3.069835 2.27957,-5.46883 4.82362,-6.755749 5.032113,-2.545516 11.226433,-0.118457 13.003143,5.09489 l 0.37871,1.111238 2.04037,0.438367 c 9.50395,2.0419 13.44824,10.640376 9.69295,21.130506 -1.9636,5.48517 -6.65014,12.55936 -12.82237,19.35497 l -2.2506,2.47791 2.08489,2.30123 c 6.04404,6.67118 10.35753,13.18689 12.50347,18.88702 2.82851,7.51318 2.04638,15.205153 -1.95263,19.203383 -2.37585,2.37538 -5.20109,3.33519 -10.4074,3.53567 -5.41766,0.20861 -11.637143,-0.83785 -18.900143,-3.18007 -1.54494,-0.49823 -2.82753,-0.87154 -2.8502,-0.82959 -0.0227,0.0419 -0.35296,1.05361 -0.73396,2.24815 l -0.69274,2.17189 1.14341,1.00627 c 0.69167,0.60872 1.47893,1.68744 1.99265,2.73039 0.76991,1.56307 0.84924,1.94185 0.84924,4.05513 0,2.02792 -0.0976,2.54234 -0.75065,3.9563 -0.95084,2.05874 -2.94168,3.93646 -4.98335,4.7002 -1.67112,0.62513 -4.39908,0.75498 -5.84407,0.27818 -0.91111,-0.30063 -0.94174,-0.28625 -2.91861,1.37016 -3.91505,3.28041 -7.8036,4.42237 -11.55141,3.39233 z m 5.50671,-4.62364 c 1.09976,-0.47586 1.94464,-1.04602 3.22042,-2.17328 l 0.96847,-0.85573 -0.78789,-1.47795 c -3.18802,-5.98016 0.56969,-13.09308 7.23356,-13.69231 l 1.87023,-0.16818 0.68604,-2.22904 0.68604,-2.22903 -3.77326,-1.61632 c -2.07529,-0.88897 -5.77497,-2.62793 -8.22151,-3.864353 l -4.44825,-2.24803 -2.26968,1.27409 c -3.3236,1.8657 -8.87078,4.619223 -11.82982,5.872123 -1.42111,0.60171 -2.61202,1.11894 -2.64648,1.14939 -0.0345,0.0305 0.32944,1.20905 0.80867,2.6191 3.76057,11.0649 8.2487,17.73634 13.31193,19.78772 1.37455,0.5569 3.71647,0.49005 5.19153,-0.1482 z m -37.54325,-21.73734 c 3.50401,-0.4586 6.0077,-1.04795 10.02554,-2.35996 1.56322,-0.51046 2.86561,-0.94533 2.8942,-0.96637 0.0286,-0.021 -0.22247,-1.25486 -0.55795,-2.741823 -1.11138,-4.92615 -2.19654,-11.78569 -2.59366,-16.39513 -0.33068,-3.83834 -0.14667,-3.49218 -3.3176,-6.24118 -1.5865,-1.37539 -4.05702,-3.65121 -5.49006,-5.05736 l -2.60551,-2.55665 -1.79221,2.0193 c -7.512333,8.46417 -12.103073,16.14628 -13.399865,22.42322 -0.873794,4.22949 -0.220595,6.809453 2.315857,9.147013 3.006723,2.77096 7.601958,3.63453 14.521258,2.72894 z m 82.079243,-0.62614 c 3.11622,-1.20112 4.53157,-3.62947 4.74761,-8.145563 0.0975,-2.03898 0.0111,-3.05416 -0.4103,-4.81789 -1.39786,-5.85085 -5.82261,-13.0709 -12.53512,-20.45406 l -2.03156,-2.23454 -1.97336,1.82068 c -1.08534,1.00138 -3.729923,3.31897 -5.876823,5.15021 l -3.90347,3.32951 -0.17264,2.01559 c -0.46113,5.38388 -1.61786,12.95238 -2.73519,17.8965 -0.27213,1.204133 -0.47248,2.208353 -0.44522,2.231603 0.18225,0.15545 5.43616,1.72832 7.55464,2.26165 2.4853,0.62567 6.000733,1.31761 7.868653,1.54877 0.49739,0.0616 2.59028,0.0826 4.65088,0.0468 3.17007,-0.0551 3.97971,-0.15502 5.2619,-0.64923 z M 52.583657,99.488447 c 4.0524,-1.78294 10.69003,-5.20528 10.54638,-5.43768 -0.0768,-0.1243 -1.33168,-0.95673 -2.78854,-1.84984 -3.12509,-1.9158 -6.505,-4.20709 -10.32233,-6.99767 -1.52034,-1.11142 -2.80564,-2.02075 -2.85622,-2.02075 -0.10869,0 0.44833,4.83009 0.83416,7.23329 0.62817,3.91268 1.91504,10.074933 2.10396,10.074933 0.1125,0 1.22966,-0.45102 2.48259,-1.002283 z m 33.71831,-3.13425 c 0.62701,-3.08892 1.35318,-7.64378 1.89302,-11.87387 0.15085,-1.18201 0.12211,-1.36755 -0.17472,-1.12824 -1.43067,1.15343 -8.52798,6.08544 -11.65539,8.09947 -2.09387,1.34844 -3.80889,2.51818 -3.81114,2.59942 -0.0102,0.36863 12.01565,5.91343 12.65502,5.83488 0.28012,-0.0344 0.57989,-1.00281 1.09321,-3.53166 z m -14.73362,-7.06743 c 4.09023,-2.51782 10.23868,-6.73831 14.28798,-9.80772 l 2.84221,-2.15441 0.16823,-1.39812 c 0.22099,-1.83655 0.22339,-18.0824 0.003,-19.71669 -0.16946,-1.25614 -0.19922,-1.29006 -3.01336,-3.43348 -3.22235,-2.45436 -12.29597,-8.60522 -15.70714,-10.64762 -1.28029,-0.76656 -2.44064,-1.29492 -2.65944,-1.21097 -1.79997,0.69057 -13.20707,8.27752 -17.80692,11.84351 l -3.10059,2.4037 -0.15979,2.96509 c -0.20531,3.80973 -0.20531,12.19538 0,16.00511 l 0.15979,2.96509 3.10059,2.40261 c 5.04569,3.90985 17.18541,11.91758 18.10056,11.93968 0.1497,0.004 1.85293,-0.96649 3.78496,-2.15578 z m -7.89247,-7.28778 c -2.5418,-0.61526 -5.50777,-2.33263 -7.53754,-4.36442 -5.09949,-5.10456 -6.20593,-12.78432 -2.78484,-19.32953 1.95801,-3.74606 6.26408,-7.06649 10.44063,-8.05081 2.12771,-0.50146 5.89889,-0.50392 7.8615,-0.005 5.67741,1.44289 10.15197,5.8151 11.9069,11.63455 0.62466,2.0714 0.62096,6.38123 -0.007,8.49793 -1.71859,5.7902 -6.21966,10.19101 -11.8996,11.63455 -1.90965,0.48533 -5.93968,0.47667 -7.97975,-0.0171 z m 35.1459,-13.23778 c 1.479163,-1.33724 2.646443,-2.56292 2.593973,-2.72372 -0.0998,-0.3058 -5.291973,-5.08461 -6.968213,-6.41345 l -0.96893,-0.76813 v 7.27905 7.27905 l 1.32689,-1.11072 c 0.7298,-0.6109 2.53712,-2.20483 4.01628,-3.54208 z m -56.89041,-2.6286 c 0,-3.83622 -0.0777,-6.94589 -0.17277,-6.91037 -0.095,0.0355 -1.81762,1.57582 -3.82798,3.4229 l -3.65521,3.35831 3.68313,3.55206 c 2.02572,1.95363 3.74831,3.55206 3.82798,3.55206 0.0797,0 0.14485,-3.13873 0.14485,-6.97496 z m -8.77691,-4.93412 c 1.1509,-1.17597 8.67415,-7.88809 9.09809,-8.11716 0.0345,-0.0187 0.18034,-1.24567 0.324,-2.72668 0.59329,-6.11644 1.65302,-12.88462 2.81816,-17.99877 l 0.48552,-2.131093 -2.87877,-0.890283 c -10.1321,-3.133434 -17.68698,-3.582801 -22.42876,-1.334071 -3.09081,1.465778 -4.650853,3.956807 -4.679751,7.472487 -0.0251,3.05382 0.0861,3.27653 1.635942,3.27653 2.494138,0 5.394639,1.62206 6.92908,3.87498 1.134599,1.66586 1.608749,3.2267 1.608749,5.2958 0,1.98901 -0.39843,3.37681 -1.44563,5.03536 l -0.688381,1.09025 1.622041,2.10383 c 2.31302,3.00005 5.47795,6.61918 5.79104,6.62213 0.14655,10e-4 0.96046,-0.70661 1.80867,-1.57331 z m 75.108293,-2.02861 c 5.74412,-6.53023 10.09272,-13.62577 11.31327,-18.45968 1.78445,-7.06715 -1.14326,-12.30927 -7.49389,-13.418005 -0.8902,-0.155416 -0.91373,-0.136181 -1.50525,1.230006 -0.75098,1.734504 -2.46306,3.469559 -4.38377,4.442599 -1.31878,0.66811 -1.73465,0.74718 -3.9295,0.74718 -2.11731,0 -2.649933,-0.0933 -3.875743,-0.67883 -1.46508,-0.69984 -2.84675,-1.859065 -3.78254,-3.173585 l -0.53566,-0.752439 -2.25523,0.703006 c -1.69938,0.529739 -2.21973,0.795484 -2.11121,1.078222 0.68404,1.782246 2.52822,13.001616 3.04695,18.536656 l 0.31049,3.31311 2.85519,2.37019 c 1.57035,1.30361 4.173493,3.56835 5.784743,5.03277 1.61125,1.46442 3.06564,2.61945 3.23198,2.56674 0.16633,-0.0527 1.66491,-1.64478 3.33017,-3.53794 z m -58.498183,-11.9443 c 2.65754,-1.97252 9.20117,-6.38737 11.94516,-8.05914 l 1.64767,-1.00384 -3.09075,-1.55849 c -4.6556,-2.34755 -10.17167,-4.820027 -10.2979,-4.61583 -0.55812,0.90288 -3.21215,17.09444 -2.80202,17.09444 0.0527,0 1.22169,-0.83571 2.59784,-1.85714 z m 38.43653,0.37173 c -0.53281,-4.67167 -2.26012,-14.75123 -2.63059,-15.35055 -0.063,-0.10199 -0.9547,0.16423 -1.98146,0.59159 -2.74415,1.14219 -11.0394,5.2032 -11.0394,5.40444 0,0.0951 1.63503,1.20711 3.6334,2.47105 1.99837,1.26395 5.5156,3.65609 7.81606,5.31588 2.30047,1.65978 4.22513,3.02571 4.27703,3.03539 0.0519,0.01 0.0181,-0.65082 -0.075,-1.4678 z m -7.51241,-18.282814 c 1.98954,-0.835476 3.64304,-1.531002 3.67444,-1.545612 0.0314,-0.01461 -0.33002,-1.240874 -0.80314,-2.72503 -3.16133,-9.916872 -7.92996,-17.4756476 -12.45617,-19.7443216 -2.1591,-1.082206 -4.4996,-1.091396 -6.69321,-0.02628 -1.91,0.927411 -4.72413,3.696615 -6.41975,6.3172656 -2.2275,3.442683 -4.75882,8.986726 -6.09,13.338189 -0.30426,0.994577 -0.61137,1.997581 -0.68247,2.228898 -0.10071,0.327624 0.45769,0.665817 2.52655,1.530202 1.4607,0.610294 5.21381,2.403901 8.34024,3.985794 l 5.6844,2.87617 4.65088,-2.35812 c 2.55799,-1.29696 6.27869,-3.041677 8.26823,-3.877155 z"
       id="path1" /></g></svg>
