<?xml version="1.0" encoding="UTF-8" standalone="no"?>
<!-- Created with Inkscape (http://www.inkscape.org/) -->

<svg
   width="74.999992mm"
   height="74.999992mm"
   viewBox="0 0 74.999992 74.999992"
   version="1.1"
   id="svg1"
   xml:space="preserve"
   inkscape:version="1.3.2 (091e20e, 2023-11-25, custom)"
   sodipodi:docname="Logo.svg"
   xmlns:inkscape="http://www.inkscape.org/namespaces/inkscape"
   xmlns:sodipodi="http://sodipodi.sourceforge.net/DTD/sodipodi-0.dtd"
   xmlns:xlink="http://www.w3.org/1999/xlink"
   xmlns="http://www.w3.org/2000/svg"
   xmlns:svg="http://www.w3.org/2000/svg"><sodipodi:namedview
     id="namedview1"
     pagecolor="#ffffff"
     bordercolor="#666666"
     borderopacity="1.0"
     inkscape:showpageshadow="2"
     inkscape:pageopacity="0.0"
     inkscape:pagecheckerboard="0"
     inkscape:deskcolor="#d1d1d1"
     inkscape:document-units="mm"
     inkscape:zoom="1"
     inkscape:cx="408"
     inkscape:cy="178.5"
     inkscape:window-width="1920"
     inkscape:window-height="991"
     inkscape:window-x="-32000"
     inkscape:window-y="-32000"
     inkscape:window-maximized="0"
     inkscape:current-layer="layer1"
     showguides="false" /><defs
     id="defs1"><linearGradient
       id="linearGradient15"
       inkscape:collect="always"><stop
         style="stop-color:#54bdec;stop-opacity:1;"
         offset="0"
         id="stop15" /><stop
         style="stop-color:#77e0ec;stop-opacity:1;"
         offset="1"
         id="stop16" /></linearGradient><linearGradient
       inkscape:collect="always"
       xlink:href="#linearGradient15"
       id="linearGradient2"
       gradientUnits="userSpaceOnUse"
       gradientTransform="matrix(0.75757576,0,0,0.75757576,24.925299,111.20075)"
       x1="58.472916"
       y1="178.71701"
       x2="151.52708"
       y2="178.71701"
       spreadMethod="pad" /></defs><g
     inkscape:label="Calque 1"
     inkscape:groupmode="layer"
     id="layer1"
     transform="translate(-66.97075,-209.09242)"><circle
       style="fill:#17203f;fill-opacity:1;stroke-width:1.24297;stroke-linecap:round;stroke-miterlimit:3.1"
       id="path1-6-6"
       cx="104.47075"
       cy="246.59242"
       r="37.5"
       inkscape:export-filename="path1-6.svg"
       inkscape:export-xdpi="2330.28"
       inkscape:export-ydpi="2330.28" /><circle
       style="fill:url(#linearGradient2);fill-opacity:1;stroke-width:1.16832;stroke-linecap:round;stroke-miterlimit:3.1"
       id="path1-7-8-3"
       cx="104.47075"
       cy="246.59242"
       r="35.247791" /><path
       d="m 85.993242,233.71209 h -3.339309 c -2.071171,3.83559 -3.248302,8.22278 -3.248302,12.88137 0,4.35225 1.031935,8.46469 2.855812,12.11445 h 3.27262 c -2.053224,-3.56469 -3.232332,-7.69838 -3.232332,-12.11445 0,-4.73602 1.354523,-9.14867 3.691511,-12.88137 z"
       style="fill:#ffffff;stroke-width:1.34428;stroke-linecap:round;stroke-miterlimit:3.1"
       id="path22" /><path
       d="m 126.28788,233.71209 h -3.3393 c 2.33698,3.7327 3.6922,8.14535 3.6922,12.88137 0,4.41607 -1.1798,8.54976 -3.23302,12.11445 h 3.27262 c 1.82386,-3.64976 2.8565,-7.7622 2.8565,-12.11445 0,-4.65859 -1.17783,-9.04578 -3.249,-12.88137 z"
       style="fill:#ffffff;stroke-width:1.34428;stroke-linecap:round;stroke-miterlimit:3.1"
       id="path18" /><path
       id="path11"
       style="fill:#ffffff;stroke-width:0.189088;stroke-linecap:round;stroke-miterlimit:3.1"
       d="m 104.47022,224.89736 c -4.45104,0 -8.033915,3.58288 -8.033915,8.03392 v 10.9196 c 0,4.45105 3.582875,8.03461 8.033915,8.03461 4.45105,0 8.03461,-3.58356 8.03461,-8.03461 v -10.9196 c 0,-4.45104 -3.58356,-8.03392 -8.03461,-8.03392 z m -11.182888,20.06362 c -0.701942,0 -1.255395,0.57098 -1.152464,1.265 0.790208,5.32788 5.14711,9.45956 10.581992,9.90746 v 8.64731 h -5.24827 c -0.971376,0 -1.754055,0.782 -1.754055,1.75336 0,0.97138 0.782679,1.75337 1.754055,1.75337 h 14.00396 c 0.97137,0 1.75405,-0.78199 1.75405,-1.75337 0,-0.97136 -0.78268,-1.75336 -1.75405,-1.75336 h -5.24827 v -8.64731 c 5.43489,-0.4479 9.79178,-4.57957 10.58199,-9.90746 0.10297,-0.69402 -0.45052,-1.265 -1.15247,-1.265 h -0.59255 c -0.70196,0 -1.30559,0.57129 -1.45466,1.25666 -0.89465,4.11352 -4.53506,7.17738 -8.92449,7.17738 h -0.42306 c -4.389381,0 -8.029794,-3.06393 -8.924492,-7.17738 -0.149094,-0.68544 -0.752702,-1.25666 -1.454644,-1.25666 z" /></g></svg>
