<?xml version="1.0" encoding="UTF-8" standalone="no"?>
<svg
   height="48px"
   viewBox="0 -960 960 960"
   width="48px"
   fill="#e8eaed"
   version="1.1"
   id="svg1"
   sodipodi:docname="Ouvrir page.svg"
   inkscape:version="1.3.2 (091e20e, 2023-11-25, custom)"
   xmlns:inkscape="http://www.inkscape.org/namespaces/inkscape"
   xmlns:sodipodi="http://sodipodi.sourceforge.net/DTD/sodipodi-0.dtd"
   xmlns="http://www.w3.org/2000/svg"
   xmlns:svg="http://www.w3.org/2000/svg">
  <defs
     id="defs1" />
  <sodipodi:namedview
     id="namedview1"
     pagecolor="#ffffff"
     bordercolor="#666666"
     borderopacity="1.0"
     inkscape:showpageshadow="2"
     inkscape:pageopacity="0.0"
     inkscape:pagecheckerboard="0"
     inkscape:deskcolor="#d1d1d1"
     inkscape:zoom="16.5625"
     inkscape:cx="23.969811"
     inkscape:cy="24"
     inkscape:window-width="2400"
     inkscape:window-height="1261"
     inkscape:window-x="2391"
     inkscape:window-y="-9"
     inkscape:window-maximized="1"
     inkscape:current-layer="svg1" />
  <path
     d="m 180,-120 q -24,0 -42,-18 -18,-18 -18,-42 v -180 q 0,-12.75 8.68,-21.38 8.67,-8.62 21.5,-8.62 12.82,0 21.32,8.62 8.5,8.63 8.5,21.38 v 180 H 780 V -780 H 180 v 180 q 0,12.75 -8.68,21.37 -8.67,8.63 -21.5,8.63 -12.82,0 -21.32,-8.63 -8.5,-8.62 -8.5,-21.37 v -180 q 0,-24 18,-42 18,-18 42,-18 h 600 q 24,0 42,18 18,18 18,42 v 600 q 0,24 -18,42 -18,18 -42,18 z M 486,-450 H 150 q -12.75,0 -21.37,-8.68 -8.63,-8.67 -8.63,-21.5 0,-12.82 8.63,-21.32 8.62,-8.5 21.37,-8.5 h 336 l -96,-96 q -9,-9 -8.5,-22 0.5,-13 9.11,-22 9.39,-9 22.89,-9 13.5,0 22.5,9 l 149,149 q 5,5 7,10.13 2,5.14 2,11 0,5.87 -2,10.87 -2,5 -7,10 l -150,150 q -9.33,9 -22.17,8.5 -12.83,-0.5 -22.22,-9.5 -8.61,-9 -8.61,-22.5 0,-13.5 9,-22.5 z"
     id="path1"
     style="fill:#fbfbfb;fill-opacity:1" />
</svg>
