<?xml version="1.0" encoding="UTF-8" standalone="no"?>
<svg
   enable-background="new 0 0 24 24"
   height="48px"
   viewBox="0 0 24 24"
   width="48px"
   fill="#e8eaed"
   version="1.1"
   id="svg3"
   sodipodi:docname="Ouvrir menu.svg"
   inkscape:version="1.3.2 (091e20e, 2023-11-25, custom)"
   xmlns:inkscape="http://www.inkscape.org/namespaces/inkscape"
   xmlns:sodipodi="http://sodipodi.sourceforge.net/DTD/sodipodi-0.dtd"
   xmlns="http://www.w3.org/2000/svg"
   xmlns:svg="http://www.w3.org/2000/svg">
  <defs
     id="defs3" />
  <sodipodi:namedview
     id="namedview3"
     pagecolor="#ffffff"
     bordercolor="#666666"
     borderopacity="1.0"
     inkscape:showpageshadow="2"
     inkscape:pageopacity="0.0"
     inkscape:pagecheckerboard="0"
     inkscape:deskcolor="#d1d1d1"
     inkscape:zoom="22.1875"
     inkscape:cx="24"
     inkscape:cy="24"
     inkscape:window-width="2400"
     inkscape:window-height="1261"
     inkscape:window-x="2391"
     inkscape:window-y="-9"
     inkscape:window-maximized="1"
     inkscape:current-layer="svg3" />
  <path
     d="M0,0h24v24H0V0z"
     fill="none"
     id="path1" />
  <path
     d="M4,18h11c0.55,0,1-0.45,1-1v0c0-0.55-0.45-1-1-1H4c-0.55,0-1,0.45-1,1v0C3,17.55,3.45,18,4,18z M4,13h8c0.55,0,1-0.45,1-1v0 c0-0.55-0.45-1-1-1H4c-0.55,0-1,0.45-1,1v0C3,12.55,3.45,13,4,13z M3,7L3,7c0,0.55,0.45,1,1,1h11c0.55,0,1-0.45,1-1v0 c0-0.55-0.45-1-1-1H4C3.45,6,3,6.45,3,7z M20.3,14.88L17.42,12l2.88-2.88c0.39-0.39,0.39-1.02,0-1.41l0,0 c-0.39-0.39-1.02-0.39-1.41,0l-3.59,3.59c-0.39,0.39-0.39,1.02,0,1.41l3.59,3.59c0.39,0.39,1.02,0.39,1.41,0l0,0 C20.68,15.91,20.69,15.27,20.3,14.88z"
     id="path2"
     style="fill:#000000" />
  <path
     d="M0,0h24v24H0V0z"
     fill="none"
     id="path3" />
</svg>
