<?xml version="1.0" encoding="UTF-8" standalone="no"?>
<svg
   height="48px"
   viewBox="0 -960 960 960"
   width="48px"
   fill="#e8eaed"
   version="1.1"
   id="svg1"
   sodipodi:docname="Programme dark.svg"
   inkscape:version="1.3.2 (091e20e, 2023-11-25, custom)"
   xmlns:inkscape="http://www.inkscape.org/namespaces/inkscape"
   xmlns:sodipodi="http://sodipodi.sourceforge.net/DTD/sodipodi-0.dtd"
   xmlns="http://www.w3.org/2000/svg"
   xmlns:svg="http://www.w3.org/2000/svg">
  <defs
     id="defs1" />
  <sodipodi:namedview
     id="namedview1"
     pagecolor="#ffffff"
     bordercolor="#666666"
     borderopacity="1.0"
     inkscape:showpageshadow="2"
     inkscape:pageopacity="0.0"
     inkscape:pagecheckerboard="0"
     inkscape:deskcolor="#d1d1d1"
     inkscape:zoom="16.5625"
     inkscape:cx="23.969811"
     inkscape:cy="23.939623"
     inkscape:window-width="1920"
     inkscape:window-height="991"
     inkscape:window-x="-9"
     inkscape:window-y="-9"
     inkscape:window-maximized="1"
     inkscape:current-layer="svg1" />
  <path
     d="M399-160q-36 0-61-25.58t-25-61.5Q313-283 338-308t61-25h395q36 0 61 25t25 60.92q0 35.92-25 61.5T794-160H399Zm1-233q-35.89 0-61.44-25.58Q313-444.16 313-480.08t25.56-61.42Q364.11-567 400-567h393q35.89 0 61.44 25.58Q880-515.84 880-479.92t-25.56 61.42Q828.89-393 793-393H400Zm-1-234q-36 0-61-25.58t-25-61.5Q313-750 338-775t61-25h395q36 0 61 25t25 60.92q0 35.92-25 61.5T794-627H399Zm-231.92 0q-35.92 0-61.5-25.58T80-714.08Q80-750 105.58-775t61.5-25Q203-800 228-775t25 60.92q0 35.92-25 61.5T167.08-627Zm-.16 234q-35.92 0-61.42-25.58T80-480.08q0-35.92 25.58-61.42t61.5-25.5q35.92 0 61.42 25.58t25.5 61.5q0 35.92-25.58 61.42t-61.5 25.5Zm.16 233q-35.92 0-61.5-25.58T80-247.08Q80-283 105.58-308t61.5-25Q203-333 228-308t25 60.92q0 35.92-25 61.5T167.08-160Z"
     id="path1"
     style="fill:#fbfbfb;fill-opacity:0.98431373" />
</svg>
