<?xml version="1.0" encoding="UTF-8" standalone="no"?>
<svg
   height="48px"
   viewBox="0 -960 960 960"
   width="48px"
   fill="#e8eaed"
   version="1.1"
   id="svg1"
   sodipodi:docname="Thème clair.svg"
   inkscape:version="1.3.2 (091e20e, 2023-11-25, custom)"
   inkscape:export-filename="Thème clair.png"
   inkscape:export-xdpi="2330.28"
   inkscape:export-ydpi="2330.28"
   xmlns:inkscape="http://www.inkscape.org/namespaces/inkscape"
   xmlns:sodipodi="http://sodipodi.sourceforge.net/DTD/sodipodi-0.dtd"
   xmlns="http://www.w3.org/2000/svg"
   xmlns:svg="http://www.w3.org/2000/svg">
  <defs
     id="defs1" />
  <sodipodi:namedview
     id="namedview1"
     pagecolor="#ffffff"
     bordercolor="#666666"
     borderopacity="1.0"
     inkscape:showpageshadow="2"
     inkscape:pageopacity="0.0"
     inkscape:pagecheckerboard="0"
     inkscape:deskcolor="#d1d1d1"
     inkscape:zoom="11.711456"
     inkscape:cx="14.174156"
     inkscape:cy="17.546922"
     inkscape:window-width="1920"
     inkscape:window-height="991"
     inkscape:window-x="-9"
     inkscape:window-y="-9"
     inkscape:window-maximized="1"
     inkscape:current-layer="svg1" />
  <g
     id="g1"
     transform="translate(7.2480921,189.55798)"
     inkscape:export-filename=".\Thème clair.png"
     inkscape:export-xdpi="2330.28"
     inkscape:export-ydpi="2330.28">
    <path
       d="m 842.1229,-572.69737 q -40.76753,0 -69.30478,-28.53728 -28.53728,-28.53725 -28.53728,-69.30478 0,-36.69076 21.60679,-62.23842 21.60679,-25.54764 56.66685,-32.88579 5.43567,-1.35893 9.24065,-0.27178 3.80496,1.08713 5.97923,4.07674 2.17427,2.71784 2.03838,6.7946 -0.1359,4.07674 -2.31016,9.51241 -2.44605,6.25103 -3.80496,12.77382 -1.35893,6.5228 -1.35893,13.31739 0,24.46052 17.12236,41.58289 17.12236,17.12235 41.58288,17.12235 6.79459,0 13.18149,-1.22302 6.38691,-1.22304 12.36615,-3.39731 5.97924,-2.17426 10.32777,-1.90247 4.34854,0.27178 7.06637,2.44605 2.71783,2.17426 3.53319,6.25102 0.81535,4.07675 -0.54357,9.7842 -7.33815,32.8858 -32.8858,54.49259 -25.54765,21.60679 -61.96663,21.60679 z m 0,-16.30701 q 29.6244,0 51.63885,-18.34539 22.01447,-18.34539 27.45014,-43.07768 -6.79458,2.98962 -14.54041,4.48443 -7.74584,1.49481 -15.62755,1.49481 -31.25511,0 -53.13368,-21.87857 -21.87857,-21.87857 -21.87857,-53.13368 0,-6.52279 1.35892,-13.99684 1.35892,-7.47405 4.8921,-16.98648 -26.63478,7.33816 -44.16481,29.76031 -17.53004,22.42213 -17.53004,50.14404 0,33.97294 23.78105,57.754 23.78106,23.78105 57.754,23.78105 z m -1.08714,-80.71969 z"
       id="path1"
       style="fill:#000000;stroke-width:0.271784" />
    <rect
       style="fill:none;fill-rule:evenodd;stroke:#000000;stroke-width:27.6524;stroke-dasharray:none;stroke-opacity:1"
       id="rect1"
       width="469.33508"
       height="225.92566"
       x="245.33246"
       y="-782.52081"
       ry="112.96283" />
    <circle
       style="fill:#000000;fill-opacity:1;fill-rule:evenodd;stroke:none;stroke-width:69.5441;stroke-dasharray:none;stroke-opacity:1"
       id="path2"
       cx="360.22736"
       cy="-669.55792"
       r="87.716209" />
    <path
       d="m 111.64247,-636.46064 q 13.76846,0 23.46124,-9.63599 9.69277,-9.63842 9.69277,-23.40453 0,-13.76854 -9.63604,-23.46122 -9.63839,-9.69279 -23.40449,-9.69279 -13.76846,0 -23.46124,9.63599 -9.69277,9.63842 -9.69277,23.40453 0,13.76843 9.63603,23.46122 9.6384,9.69279 23.4045,9.69279 z m 0.0567,14.18454 q -19.62197,0 -33.45189,-13.82996 -13.829941,-13.82985 -13.829941,-33.4519 0,-19.62193 13.829941,-33.4519 13.82992,-13.82986 33.45189,-13.82986 19.62195,0 33.45187,13.82986 13.82994,13.82997 13.82994,33.4519 0,19.62205 -13.82994,33.4519 -13.82992,13.82996 -33.45187,13.82996 z m -96.927735,-40.18959 q -3.014223,0 -5.052063,-2.05204 -2.040212,-2.04962 -2.040212,-5.08269 0,-3.03087 2.040212,-5.04034 2.03784,-2.00948 5.052063,-2.00948 h 23.640902 q 3.014223,0 5.054435,2.05205 2.03784,2.04973 2.03784,5.0828 0,3.03076 -2.03784,5.04023 -2.040212,2.00947 -5.054435,2.00947 z m 170.214545,0 q -3.01422,0 -5.05206,-2.05204 -2.04021,-2.04962 -2.04021,-5.08269 0,-3.03087 2.04021,-5.04034 2.03784,-2.00948 5.05206,-2.00948 h 23.6409 q 3.01423,0 5.05444,2.05205 2.03784,2.04973 2.03784,5.0828 0,3.03076 -2.03784,5.04023 -2.04021,2.00947 -5.05444,2.00947 z m -73.32938,-73.2868 q -3.03076,0 -5.04024,-2.04013 -2.00947,-2.03793 -2.00947,-5.05215 v -23.64087 q 0,-3.01422 2.05202,-5.05446 2.04968,-2.03782 5.08281,-2.03782 3.03076,0 5.04024,2.03782 2.00947,2.04024 2.00947,5.05446 v 23.64087 q 0,3.01422 -2.05202,5.05215 -2.04968,2.04013 -5.08281,2.04013 z m 0,170.21457 q -3.03076,0 -5.04024,-2.04021 -2.00947,-2.03784 -2.00947,-5.05207 v -23.6409 q 0,-3.01422 2.05202,-5.05443 2.04968,-2.03784 5.08281,-2.03784 3.03076,0 5.04024,2.03784 2.00947,2.04021 2.00947,5.05443 v 23.6409 q 0,3.01423 -2.05202,5.05207 -2.04968,2.04021 -5.08281,2.04021 z M 54.960966,-716.36691 41.485654,-729.60584 q -2.127682,-2.1277 -2.040212,-5.1064 0.08746,-2.98112 2.016566,-5.0828 2.101676,-2.1041 5.082801,-2.1041 2.978753,0 5.106436,2.1277 l 13.238906,13.47539 q 1.891277,2.12759 1.891277,4.96457 0,2.83687 -1.891277,4.84634 -1.891277,2.00947 -4.846384,2.00947 -2.955119,0 -5.082801,-1.89124 z m 116.786094,117.02249 -13.23891,-13.47532 q -1.89128,-2.12768 -1.89128,-5.05442 0,-2.92438 2.00949,-4.87476 2.00947,-2.12768 4.84638,-2.12768 2.83691,0 4.96459,2.12768 l 13.47532,13.23891 q 2.12768,2.12768 2.04021,5.10643 -0.0875,2.98113 -2.01657,5.0828 -2.10167,2.10404 -5.0828,2.10404 -2.97875,0 -5.10643,-2.12768 z m -13.23891,-117.02249 q -2.12768,-2.1277 -2.12768,-4.96457 0,-2.83698 2.12768,-4.96457 l 13.23891,-13.47539 q 2.12768,-2.1277 5.10643,-2.04025 2.98113,0.0879 5.0828,2.01665 2.10404,2.10168 2.10404,5.0828 0,2.9787 -2.12768,5.1064 l -13.47532,13.23893 q -1.89127,1.89124 -4.81328,1.89124 -2.92438,0 -5.1159,-1.89124 z M 41.462008,-599.32078 q -2.104036,-2.10167 -2.104036,-5.0828 0,-2.97875 2.127682,-5.10643 l 13.475312,-13.23891 q 2.080401,-2.12768 4.940957,-2.12768 2.860545,0 4.896026,2.12768 2.219884,2.12768 2.219884,4.96459 0,2.83691 -2.127682,4.96459 l -13.238906,13.47532 q -2.127683,2.12768 -5.106436,2.04021 -2.981125,-0.0875 -5.082801,-2.01657 z m 70.237152,-70.23718 z"
       id="path1-7"
       style="fill:#000000;stroke-width:0.236409" />
  </g>
</svg>
