<?xml version="1.0" encoding="UTF-8" standalone="no"?>
<svg
   height="48px"
   viewBox="0 -960 960 960"
   width="48px"
   fill="#e8eaed"
   version="1.1"
   id="svg1"
   sodipodi:docname="Thème sombre.svg"
   inkscape:version="1.3.2 (091e20e, 2023-11-25, custom)"
   inkscape:export-filename="Thème sombre.png"
   inkscape:export-xdpi="2330.28"
   inkscape:export-ydpi="2330.28"
   xmlns:inkscape="http://www.inkscape.org/namespaces/inkscape"
   xmlns:sodipodi="http://sodipodi.sourceforge.net/DTD/sodipodi-0.dtd"
   xmlns="http://www.w3.org/2000/svg"
   xmlns:svg="http://www.w3.org/2000/svg">
  <defs
     id="defs1" />
  <sodipodi:namedview
     id="namedview1"
     pagecolor="#ffffff"
     bordercolor="#666666"
     borderopacity="1.0"
     inkscape:showpageshadow="2"
     inkscape:pageopacity="0.0"
     inkscape:pagecheckerboard="0"
     inkscape:deskcolor="#d1d1d1"
     inkscape:zoom="16.5625"
     inkscape:cx="24.754717"
     inkscape:cy="26.716981"
     inkscape:window-width="1920"
     inkscape:window-height="991"
     inkscape:window-x="-9"
     inkscape:window-y="-9"
     inkscape:window-maximized="1"
     inkscape:current-layer="svg1" />
  <path
     d="m 849.37096,-383.13941 q -40.7675,0 -69.3047,-28.53728 -28.5373,-28.53725 -28.5373,-69.30478 0,-36.69076 21.6068,-62.23842 21.6068,-25.54764 56.6668,-32.88579 5.4357,-1.35893 9.2407,-0.27178 3.8049,1.08713 5.9792,4.07674 2.1743,2.71784 2.0384,6.7946 -0.1359,4.07674 -2.3102,9.51241 -2.446,6.25103 -3.8049,12.77382 -1.359,6.5228 -1.359,13.31739 0,24.46052 17.1224,41.58289 17.1223,17.12235 41.5829,17.12235 6.7946,0 13.1815,-1.22302 6.3869,-1.22304 12.3661,-3.39731 5.9792,-2.17426 10.3278,-1.90247 4.3485,0.27178 7.0663,2.44605 2.7179,2.17426 3.5332,6.25102 0.8154,4.07675 -0.5435,9.7842 -7.3382,32.8858 -32.8858,54.49259 -25.5477,21.60679 -61.9667,21.60679 z m 0,-16.30701 q 29.6244,0 51.6389,-18.34539 22.0145,-18.34539 27.4501,-43.07768 -6.7945,2.98962 -14.5404,4.48443 -7.7458,1.49481 -15.6275,1.49481 -31.2551,0 -53.1337,-21.87857 -21.8786,-21.87857 -21.8786,-53.13368 0,-6.52279 1.3589,-13.99684 1.359,-7.47405 4.8921,-16.98648 -26.6347,7.33816 -44.1648,29.76031 -17.53,22.42213 -17.53,50.14404 0,33.97294 23.781,57.754 23.7811,23.78105 57.754,23.78105 z m -1.0871,-80.71969 z"
     id="path1-78"
     style="fill:#fbfbfb;stroke-width:0.271784;fill-opacity:1"
     inkscape:export-filename=".\Thème sombre.png"
     inkscape:export-xdpi="2330.28"
     inkscape:export-ydpi="2330.28" />
  <rect
     style="fill:none;fill-rule:evenodd;stroke:#fbfbfb;stroke-width:27.6524;stroke-dasharray:none;stroke-opacity:1"
     id="rect1-1"
     width="469.33508"
     height="225.92566"
     x="-721.91565"
     y="367.03717"
     ry="112.96283"
     transform="scale(-1)" />
  <circle
     style="fill:#fbfbfb;fill-opacity:1;fill-rule:evenodd;stroke:none;stroke-width:69.5441;stroke-dasharray:none;stroke-opacity:1"
     id="path2-1"
     cx="-607.02075"
     cy="480.00006"
     r="87.716209"
     transform="scale(-1)" />
  <path
     d="m 118.89057,-446.90268 q 13.76846,0 23.46124,-9.63599 9.69277,-9.63842 9.69277,-23.40453 0,-13.76854 -9.63604,-23.46122 -9.63839,-9.69279 -23.40449,-9.69279 -13.76847,0 -23.461246,9.63599 -9.69277,9.63842 -9.69277,23.40453 0,13.76843 9.63603,23.46122 9.638396,9.69279 23.404506,9.69279 z m 0.0567,14.18454 q -19.621976,0 -33.451896,-13.82996 -13.82994,-13.82985 -13.82994,-33.4519 0,-19.62193 13.82994,-33.4519 13.82992,-13.82986 33.451896,-13.82986 19.62195,0 33.45187,13.82986 13.82994,13.82997 13.82994,33.4519 0,19.62205 -13.82994,33.4519 -13.82992,13.82996 -33.45187,13.82996 z m -96.927746,-40.18959 q -3.01422,0 -5.052059,-2.05204 -2.04021,-2.04962 -2.04021,-5.08269 0,-3.03087 2.04021,-5.04034 2.037839,-2.00948 5.052059,-2.00948 h 23.64091 q 3.01422,0 5.05443,2.05205 2.03784,2.04973 2.03784,5.0828 0,3.03076 -2.03784,5.04023 -2.04021,2.00947 -5.05443,2.00947 z m 170.214556,0 q -3.01422,0 -5.05206,-2.05204 -2.04021,-2.04962 -2.04021,-5.08269 0,-3.03087 2.04021,-5.04034 2.03784,-2.00948 5.05206,-2.00948 h 23.6409 q 3.01423,0 5.05444,2.05205 2.03784,2.04973 2.03784,5.0828 0,3.03076 -2.03784,5.04023 -2.04021,2.00947 -5.05444,2.00947 z m -73.32938,-73.2868 q -3.03076,0 -5.04024,-2.04013 -2.00947,-2.03793 -2.00947,-5.05215 v -23.64087 q 0,-3.01422 2.05202,-5.05446 2.04968,-2.03782 5.08281,-2.03782 3.03076,0 5.04024,2.03782 2.00947,2.04024 2.00947,5.05446 v 23.64087 q 0,3.01422 -2.05202,5.05215 -2.04968,2.04013 -5.08281,2.04013 z m 0,170.21457 q -3.03076,0 -5.04024,-2.04021 -2.00947,-2.03784 -2.00947,-5.05207 v -23.6409 q 0,-3.01422 2.05202,-5.05443 2.04968,-2.03784 5.08281,-2.03784 3.03076,0 5.04024,2.03784 2.00947,2.04021 2.00947,5.05443 v 23.6409 q 0,3.01423 -2.05202,5.05207 -2.04968,2.04021 -5.08281,2.04021 z m -56.695636,-150.82899 -13.47532,-13.23893 q -2.12768,-2.1277 -2.04021,-5.1064 0.0875,-2.98112 2.01657,-5.0828 2.10167,-2.1041 5.0828,-2.1041 2.97875,0 5.10643,2.1277 l 13.23891,13.47539 q 1.89128,2.12759 1.89128,4.96457 0,2.83687 -1.89128,4.84634 -1.89128,2.00947 -4.84638,2.00947 -2.95512,0 -5.0828,-1.89124 z m 116.786096,117.02249 -13.23891,-13.47532 q -1.89128,-2.12768 -1.89128,-5.05442 0,-2.92438 2.00949,-4.87476 2.00947,-2.12768 4.84638,-2.12768 2.83691,0 4.96459,2.12768 l 13.47532,13.23891 q 2.12768,2.12768 2.04021,5.10643 -0.0875,2.98113 -2.01657,5.0828 -2.10167,2.10404 -5.0828,2.10404 -2.97875,0 -5.10643,-2.12768 z m -13.23891,-117.02249 q -2.12768,-2.1277 -2.12768,-4.96457 0,-2.83698 2.12768,-4.96457 l 13.23891,-13.47539 q 2.12768,-2.1277 5.10643,-2.04025 2.98113,0.0879 5.0828,2.01665 2.10404,2.10168 2.10404,5.0828 0,2.9787 -2.12768,5.1064 l -13.47532,13.23893 q -1.89127,1.89124 -4.81328,1.89124 -2.92438,0 -5.1159,-1.89124 z M 48.710104,-409.76282 q -2.10404,-2.10167 -2.10404,-5.0828 0,-2.97875 2.12768,-5.10643 l 13.47532,-13.23891 q 2.0804,-2.12768 4.94095,-2.12768 2.86055,0 4.89603,2.12768 2.21988,2.12768 2.21988,4.96459 0,2.83691 -2.12768,4.96459 l -13.23891,13.47532 q -2.12768,2.12768 -5.10643,2.04021 -2.98113,-0.0875 -5.0828,-2.01657 z M 118.94726,-480 Z"
     id="path1-7-3"
     style="fill:#fbfbfb;stroke-width:0.236409;fill-opacity:1" />
</svg>
