<?xml version="1.0" encoding="UTF-8" standalone="no"?>
<svg
   height="48px"
   viewBox="0 -960 960 960"
   width="48px"
   fill="#e8eaed"
   version="1.1"
   id="svg1"
   sodipodi:docname="Volume MILIEU.svg"
   inkscape:version="1.3.2 (091e20e, 2023-11-25, custom)"
   xmlns:inkscape="http://www.inkscape.org/namespaces/inkscape"
   xmlns:sodipodi="http://sodipodi.sourceforge.net/DTD/sodipodi-0.dtd"
   xmlns="http://www.w3.org/2000/svg"
   xmlns:svg="http://www.w3.org/2000/svg">
  <defs
     id="defs1" />
  <sodipodi:namedview
     id="namedview1"
     pagecolor="#ffffff"
     bordercolor="#666666"
     borderopacity="1.0"
     inkscape:showpageshadow="2"
     inkscape:pageopacity="0.0"
     inkscape:pagecheckerboard="0"
     inkscape:deskcolor="#d1d1d1"
     inkscape:zoom="16.5625"
     inkscape:cx="23.969811"
     inkscape:cy="23.939623"
     inkscape:window-width="1920"
     inkscape:window-height="991"
     inkscape:window-x="-9"
     inkscape:window-y="-9"
     inkscape:window-maximized="1"
     inkscape:current-layer="svg1" />
  <path
     d="M 280,-360 H 150 c -8.66667,0 -15.83333,-2.83333 -21.5,-8.5 -5.66667,-5.66667 -8.5,-12.83333 -8.5,-21.5 v -180 c 0,-8.66667 2.83333,-15.83333 8.5,-21.5 5.66667,-5.66667 12.83333,-8.5 21.5,-8.5 h 130 l 149,-149 c 9.33333,-9.33333 20.16667,-11.5 32.5,-6.5 12.33333,5 18.5,14.16667 18.5,27.5 v 496 c 0,13.33333 -6.16667,22.5 -18.5,27.5 -12.33333,5 -23.16667,2.83333 -32.5,-6.5 z m 380,-120 c 0,34.66667 -8.66667,66 -26,94 -17.33333,28 -41.66667,49.33333 -73,64 -5.33333,2.66667 -10.16667,2.33333 -14.5,-1 -4.33333,-3.33333 -6.5,-7.66667 -6.5,-13 v -289 c 0,-5.33333 2.16667,-9.66667 6.5,-13 4.33333,-3.33333 9.16667,-3.66667 14.5,-1 31.33333,14.66667 55.66667,36.33333 73,65 17.33333,28.66667 26,60 26,94 z M 420,-648 307,-540 H 180 v 120 h 127 l 113,109 z"
     id="path1"
     style="fill:#000000"
     sodipodi:nodetypes="csssssscsssssscsscsssscssccccccc" />
</svg>
