<?xml version="1.0" encoding="UTF-8" standalone="no"?>
<svg
   height="48px"
   viewBox="0 -960 960 960"
   width="48px"
   fill="#e8eaed"
   version="1.1"
   id="svg1"
   sodipodi:docname="Volume OFF.svg"
   inkscape:version="1.3.2 (091e20e, 2023-11-25, custom)"
   xmlns:inkscape="http://www.inkscape.org/namespaces/inkscape"
   xmlns:sodipodi="http://sodipodi.sourceforge.net/DTD/sodipodi-0.dtd"
   xmlns="http://www.w3.org/2000/svg"
   xmlns:svg="http://www.w3.org/2000/svg">
  <defs
     id="defs1" />
  <sodipodi:namedview
     id="namedview1"
     pagecolor="#ffffff"
     bordercolor="#666666"
     borderopacity="1.0"
     inkscape:showpageshadow="2"
     inkscape:pageopacity="0.0"
     inkscape:pagecheckerboard="0"
     inkscape:deskcolor="#d1d1d1"
     inkscape:zoom="16.562501"
     inkscape:cx="32.362263"
     inkscape:cy="29.735848"
     inkscape:window-width="1920"
     inkscape:window-height="991"
     inkscape:window-x="-9"
     inkscape:window-y="-9"
     inkscape:window-maximized="1"
     inkscape:current-layer="svg1"
     showguides="false" />
  <path
     d="m 681,-188 -43,-44 -165,-165 v 165 c 0,13.33333 -6.16667,22.5 -18.5,27.5 -12.33333,5 -23.16667,2.83333 -32.5,-6.5 L 273,-360 H 143 c -8.66667,0 -15.83333,-2.83333 -21.5,-8.5 -5.66667,-5.66667 -8.5,-12.83333 -8.5,-21.5 v -180 c 0,-8.66667 2.83333,-15.83333 8.5,-21.5 5.66667,-5.66667 12.83333,-8.5 21.5,-8.5 H 269 L 110,-759 c -6,-6 -8.83333,-13.16667 -8.5,-21.5 0.33333,-8.33333 3.5,-15.5 9.5,-21.5 6,-6 13.16667,-9 21.5,-9 8.33333,0 15.5,3 21.5,9 l 601,601 c 6,6 9,13.16667 9,21.5 0,8.33333 -3,15.5 -9,21.5 -6,6 -13.33333,9 -22,9 -8.66667,0 -16,-3 -22,-9 z M 576,-628 c 25.33333,15.33333 44.5,36.5 57.5,63.5 13,27 19.5,55.16667 19.5,84.5 v 15 c 0,4.66667 -0.66667,9.66667 -2,15 -1.33333,6.66667 -5,11 -11,13 -6,2 -11.66667,0.33333 -17,-5 l -61,-61 c -3.33333,-3.33333 -5.66667,-6.66667 -7,-10 -1.33333,-3.33333 -2,-7 -2,-11 v -91 c 0,-6 2.5,-10.5 7.5,-13.5 5,-3 10.16667,-2.83333 15.5,0.5 z m -196,-57 c -3.33333,-3.33333 -5,-7 -5,-11 0,-4 1.66667,-7.66667 5,-11 l 42,-42 c 9.33333,-9.33333 20.16667,-11.5 32.5,-6.5 12.33333,5 18.5,14.16667 18.5,27.5 v 100 c 0,6.66667 -3.16667,11.16667 -9.5,13.5 -6.33333,2.33333 -11.83333,1.16667 -16.5,-3.5 z m 33,379 v -150 l -84,-84 H 173 v 120 h 126 z"
     id="path1"
     style="fill:#000000"
     sodipodi:nodetypes="cccssscsssssscssssssssssccssscssssssscssssssssssccccccc" />
</svg>
