<?xml version="1.0" encoding="UTF-8" standalone="no"?>
<svg
   height="48px"
   viewBox="0 -960 960 960"
   width="48px"
   fill="#e8eaed"
   version="1.1"
   id="svg1"
   sodipodi:docname="Volume ON.svg"
   inkscape:version="1.3.2 (091e20e, 2023-11-25, custom)"
   xmlns:inkscape="http://www.inkscape.org/namespaces/inkscape"
   xmlns:sodipodi="http://sodipodi.sourceforge.net/DTD/sodipodi-0.dtd"
   xmlns="http://www.w3.org/2000/svg"
   xmlns:svg="http://www.w3.org/2000/svg">
  <defs
     id="defs1" />
  <sodipodi:namedview
     id="namedview1"
     pagecolor="#ffffff"
     bordercolor="#666666"
     borderopacity="1.0"
     inkscape:showpageshadow="2"
     inkscape:pageopacity="0.0"
     inkscape:pagecheckerboard="0"
     inkscape:deskcolor="#d1d1d1"
     inkscape:zoom="16.5625"
     inkscape:cx="23.969811"
     inkscape:cy="24"
     inkscape:window-width="1920"
     inkscape:window-height="991"
     inkscape:window-x="-9"
     inkscape:window-y="-9"
     inkscape:window-maximized="1"
     inkscape:current-layer="svg1" />
  <path
     d="M780-481q0-94-52.5-169T590-759q-12-5-17-16t0-22q5-12 17.5-16.5t25.5.5q101 41 162.5 131T840-481q0 111-61.5 201T616-149q-13 5-25.5.5T573-165q-5-11 0-22t17-16q85-34 137.5-109T780-481ZM280-360H150q-13 0-21.5-8.5T120-390v-180q0-13 8.5-21.5T150-600h130l149-149q14-14 32.5-6.5T480-728v496q0 20-18.5 27.5T429-211L280-360Zm380-120q0 52-26 94t-73 64q-8 4-14.5-1t-6.5-13v-289q0-8 6.5-13t14.5-1q47 22 73 65t26 94ZM420-648 307-540H180v120h127l113 109v-337ZM298-480Z"
     id="path1"
     style="fill:#000000" />
</svg>
